<?xml version="1.0" encoding="UTF-8" standalone="no"?>
<!-- Created with Inkscape (http://www.inkscape.org/) -->

<svg
   width="60mm"
   height="60mm"
   viewBox="0 0 59.999867 59.999867"
   version="1.1"
   id="svg1"
   inkscape:version="1.4 (86a8ad7, 2024-10-11)"
   sodipodi:docname="Agenda.svg"
   xmlns:inkscape="http://www.inkscape.org/namespaces/inkscape"
   xmlns:sodipodi="http://sodipodi.sourceforge.net/DTD/sodipodi-0.dtd"
   xmlns:xlink="http://www.w3.org/1999/xlink"
   xmlns="http://www.w3.org/2000/svg"
   xmlns:svg="http://www.w3.org/2000/svg">
  <sodipodi:namedview
     id="namedview1"
     pagecolor="#ffffff"
     bordercolor="#000000"
     borderopacity="0.25"
     inkscape:showpageshadow="2"
     inkscape:pageopacity="0.0"
     inkscape:pagecheckerboard="0"
     inkscape:deskcolor="#d1d1d1"
     inkscape:document-units="mm"
     inkscape:zoom="4"
     inkscape:cx="343.625"
     inkscape:cy="90.375"
     inkscape:window-width="5120"
     inkscape:window-height="1377"
     inkscape:window-x="-8"
     inkscape:window-y="-8"
     inkscape:window-maximized="1"
     inkscape:current-layer="layer1" />
  <defs
     id="defs1">
    <linearGradient
       id="linearGradient12"
       inkscape:collect="always">
      <stop
         style="stop-color:#6c6257;stop-opacity:1;"
         offset="0"
         id="stop12" />
      <stop
         style="stop-color:#9c8167;stop-opacity:1;"
         offset="0.5"
         id="stop14" />
      <stop
         style="stop-color:#6a5942;stop-opacity:1;"
         offset="1"
         id="stop13" />
    </linearGradient>
    <linearGradient
       id="linearGradient11"
       inkscape:collect="always">
      <stop
         style="stop-color:#000000;stop-opacity:0.1147541;"
         offset="0"
         id="stop8" />
      <stop
         style="stop-color:#c09975;stop-opacity:0;"
         offset="0.29113346"
         id="stop9" />
      <stop
         style="stop-color:#b89370;stop-opacity:0;"
         offset="0.74492031"
         id="stop10" />
      <stop
         style="stop-color:#000000;stop-opacity:0.08743169;"
         offset="1"
         id="stop11" />
    </linearGradient>
    <linearGradient
       id="linearGradient4"
       inkscape:collect="always">
      <stop
         style="stop-color:#87765b;stop-opacity:1;"
         offset="0"
         id="stop4" />
      <stop
         style="stop-color:#b59980;stop-opacity:1;"
         offset="0.29113346"
         id="stop6" />
      <stop
         style="stop-color:#af9379;stop-opacity:1;"
         offset="0.71999133"
         id="stop7" />
      <stop
         style="stop-color:#947e59;stop-opacity:1;"
         offset="1"
         id="stop5" />
    </linearGradient>
    <linearGradient
       inkscape:collect="always"
       xlink:href="#linearGradient4"
       id="linearGradient5"
       x1="45.323841"
       y1="30.591545"
       x2="53.067684"
       y2="79.234604"
       gradientUnits="userSpaceOnUse"
       gradientTransform="matrix(0.89807505,0,0,0.89807505,3.9797868,8.5129727)" />
    <linearGradient
       inkscape:collect="always"
       xlink:href="#linearGradient11"
       id="linearGradient7"
       gradientUnits="userSpaceOnUse"
       gradientTransform="matrix(0.89807505,0,0,0.89807505,3.9797868,8.5129727)"
       x1="34.343655"
       y1="58.637318"
       x2="64.841621"
       y2="54.363823" />
    <linearGradient
       inkscape:collect="always"
       xlink:href="#linearGradient12"
       id="linearGradient13"
       x1="40.463661"
       y1="81.700417"
       x2="83.740219"
       y2="81.700417"
       gradientUnits="userSpaceOnUse"
       gradientTransform="matrix(0.89807505,0,0,0.89807505,2.4352882,7.0872817)" />
  </defs>
  <g
     inkscape:label="Vrstva 1"
     inkscape:groupmode="layer"
     id="layer1"
     transform="translate(-18.701237,-27.351616)">
    <path
       style="fill:#6c5d47;fill-opacity:1;stroke:none;stroke-width:0.699998;stroke-linejoin:round;stroke-dasharray:none;stroke-opacity:1"
       d="m 24.885071,32.179796 c -2.783316,-0.74242 -5.205664,3.869295 -5.205664,3.869295 0,0 6.640345,-0.495492 8.489545,0 -1.781711,-4.047164 -3.283881,-3.869295 -3.283881,-3.869295 z"
       id="path2"
       sodipodi:nodetypes="sccs" />
    <path
       style="fill:url(#linearGradient5);stroke:none;stroke-width:0.699998;stroke-linejoin:round;stroke-dasharray:none;stroke-opacity:1"
       d="m 67.236296,57.429686 c 0,-19.412791 -1.192835,-25.269853 -5.390781,-25.269854 -4.471234,0 -7.456519,1.963147 -18.776772,1.963147 -11.320253,0 -18.370254,-1.863143 -18.370254,-1.863143 2.865289,0.456956 5.392246,5.757061 5.392246,25.16985 0,19.412789 2.572696,25.060428 5.205663,25.060428 5.170729,0 9.641288,-1.307911 19.635842,-1.309396 9.994555,-0.0015 11.573415,1.309397 17.517959,1.308469 -2.955353,-8.98e-4 -5.213903,-5.646711 -5.213903,-25.059501 z"
       id="path1"
       sodipodi:nodetypes="ssscssccs" />
    <path
       style="fill:url(#linearGradient7);stroke:none;stroke-width:0.699998;stroke-linejoin:round;stroke-dasharray:none;stroke-opacity:1"
       d="m 67.236296,57.429686 c 0,-19.412791 -1.192835,-25.269853 -5.390781,-25.269854 -4.471234,0 -7.456519,1.963147 -18.776772,1.963147 -11.320253,0 -18.370254,-1.863143 -18.370254,-1.863143 2.853596,0.43357 5.392246,5.757061 5.392246,25.16985 0,19.412789 2.572696,25.060428 5.205663,25.060428 5.170729,0 9.641288,-1.307911 19.635842,-1.309396 9.994555,-0.0015 11.573415,1.309397 17.517959,1.308469 -2.955353,-8.98e-4 -5.213903,-5.646711 -5.213903,-25.059501 z"
       id="path1-5"
       sodipodi:nodetypes="ssscssccs" />
    <path
       style="fill:url(#linearGradient13);stroke:none;stroke-width:0.699998;stroke-linejoin:round;stroke-dasharray:none;stroke-opacity:1"
       d="m 77.666498,78.43136 c 0,0 -5.151233,0.688805 -11.429645,0.237615 -5.67146,-0.407573 -8.722915,-1.009865 -15.017991,-1.306884 -6.672552,-0.314829 -10.716801,1.069268 -10.716801,1.069268 0,0 -1.971888,4.058579 -5.205229,4.058054 5.170591,-5.27e-4 9.64115,-1.308442 19.635704,-1.309926 9.994554,-0.0015 11.573414,1.309399 17.517691,1.309082 3.938779,6.17e-4 5.216271,-4.057209 5.216271,-4.057209 z"
       id="path3"
       sodipodi:nodetypes="cssccccc" />
    <path
       id="path2-6"
       style="fill:none;fill-opacity:1;stroke:#ffffff;stroke-width:0.99999779;stroke-linejoin:round;stroke-dasharray:none;stroke-opacity:1"
       d="m 24.240421,32.09912 c -2.502351,0.02388 -4.560952,3.950137 -4.560952,3.950137 0,0 6.318521,-0.47133 8.343659,-0.03411 1.243199,3.566244 2.067569,10.058025 2.067569,21.414666 0,19.412789 2.572905,25.060431 5.205872,25.060431 0.02403,0 0.04731,-0.002 0.07131,-0.0021 0.598059,-0.0014 1.187431,-0.02006 1.777148,-0.05219 0.742626,-0.04042 1.502487,-0.105288 2.266524,-0.179834 1.133207,-0.11076 2.31684,-0.247242 3.602873,-0.388606 3.075936,-0.338164 6.745775,-0.686009 11.917592,-0.686778 7.550748,-0.0011 10.301854,0.745615 13.75727,1.111041 0.520246,0.05503 1.057646,0.10104 1.628837,0.134875 0.05035,0.003 0.101536,0.006 0.152445,0.0088 0.612154,0.03348 1.263058,0.05327 1.97972,0.05323 3.938779,6.17e-4 5.216208,-4.057108 5.216208,-4.057108 0,0 -3.625135,0.473807 -8.481118,0.366902 -1.198524,-3.600762 -1.949231,-10.195884 -1.949231,-21.368675 0,-19.412791 -1.192927,-25.270235 -5.390873,-25.270236 -4.471234,0 -7.456337,1.963183 -18.77659,1.963183 -10.226015,0 -16.396825,-1.603694 -17.141095,-1.804254 -0.610854,-0.164608 -1.143747,-0.224561 -1.687168,-0.219374 z"
       sodipodi:nodetypes="sccssccccscsscccsssss" />
  </g>
</svg>
