<?xml version="1.0" encoding="UTF-8" standalone="no"?>
<!-- Created with Inkscape (http://www.inkscape.org/) -->

<svg
   width="129.13272mm"
   height="83.331139mm"
   viewBox="0 0 129.13272 83.331139"
   version="1.1"
   id="svg1"
   sodipodi:docname="AS.svg"
   inkscape:version="1.4.2 (f4327f4, 2025-05-13)"
   xmlns:inkscape="http://www.inkscape.org/namespaces/inkscape"
   xmlns:sodipodi="http://sodipodi.sourceforge.net/DTD/sodipodi-0.dtd"
   xmlns:xlink="http://www.w3.org/1999/xlink"
   xmlns="http://www.w3.org/2000/svg"
   xmlns:svg="http://www.w3.org/2000/svg">
  <sodipodi:namedview
     id="namedview1"
     pagecolor="#ffffff"
     bordercolor="#000000"
     borderopacity="0.25"
     inkscape:showpageshadow="2"
     inkscape:pageopacity="0.0"
     inkscape:pagecheckerboard="0"
     inkscape:deskcolor="#d1d1d1"
     inkscape:document-units="mm"
     inkscape:zoom="1.4142136"
     inkscape:cx="274.35743"
     inkscape:cy="129.04699"
     inkscape:window-width="1920"
     inkscape:window-height="1009"
     inkscape:window-x="1912"
     inkscape:window-y="-8"
     inkscape:window-maximized="1"
     inkscape:current-layer="layer1" />
  <defs
     id="defs1">
    <pattern
       inkscape:collect="always"
       xlink:href="#Polkadots-med"
       preserveAspectRatio="xMidYMid"
       id="pattern57"
       patternTransform="scale(0.7)"
       x="0"
       y="0" />
    <pattern
       patternUnits="userSpaceOnUse"
       width="10"
       height="10"
       patternTransform="translate(0,0) scale(10,10)"
       preserveAspectRatio="xMidYMid"
       id="Polkadots-med"
       inkscape:stockid="Polka dots, medium"
       inkscape:label="Polka dots medium"
       inkscape:collect="always"
       inkscape:isstock="true">
      <circle
         style="stroke:none"
         cx="2.567"
         cy="0.810"
         r="0.15"
         id="circle406" />
      <circle
         style="stroke:none"
         cx="3.048"
         cy="2.33"
         r="0.15"
         id="circle408" />
      <circle
         style="stroke:none"
         cx="4.418"
         cy="2.415"
         r="0.15"
         id="circle410" />
      <circle
         style="stroke:none"
         cx="1.844"
         cy="3.029"
         r="0.15"
         id="circle412" />
      <circle
         style="stroke:none"
         cx="6.08"
         cy="1.363"
         r="0.15"
         id="circle414" />
      <circle
         style="stroke:none"
         cx="5.819"
         cy="4.413"
         r="0.15"
         id="circle416" />
      <circle
         style="stroke:none"
         cx="4.305"
         cy="4.048"
         r="0.15"
         id="circle418" />
      <circle
         style="stroke:none"
         cx="5.541"
         cy="3.045"
         r="0.15"
         id="circle420" />
      <circle
         style="stroke:none"
         cx="4.785"
         cy="5.527"
         r="0.15"
         id="circle422" />
      <circle
         style="stroke:none"
         cx="2.667"
         cy="5.184"
         r="0.15"
         id="circle424" />
      <circle
         style="stroke:none"
         cx="7.965"
         cy="1.448"
         r="0.15"
         id="circle426" />
      <circle
         style="stroke:none"
         cx="7.047"
         cy="5.049"
         r="0.15"
         id="circle428" />
      <circle
         style="stroke:none"
         cx="4.340"
         cy="0.895"
         r="0.15"
         id="circle430" />
      <circle
         style="stroke:none"
         cx="7.125"
         cy="0.340"
         r="0.15"
         id="circle432" />
      <circle
         style="stroke:none"
         cx="9.550"
         cy="1.049"
         r="0.15"
         id="circle434" />
      <circle
         style="stroke:none"
         cx="7.006"
         cy="2.689"
         r="0.15"
         id="circle436" />
      <circle
         style="stroke:none"
         cx="8.909"
         cy="2.689"
         r="0.15"
         id="circle438" />
      <circle
         style="stroke:none"
         cx="9.315"
         cy="4.407"
         r="0.15"
         id="circle440" />
      <circle
         style="stroke:none"
         cx="7.820"
         cy="3.870"
         r="0.15"
         id="circle442" />
      <circle
         style="stroke:none"
         cx="8.270"
         cy="5.948"
         r="0.15"
         id="circle444" />
      <circle
         style="stroke:none"
         cx="7.973"
         cy="7.428"
         r="0.15"
         id="circle446" />
      <circle
         style="stroke:none"
         cx="9.342"
         cy="8.072"
         r="0.15"
         id="circle448" />
      <circle
         style="stroke:none"
         cx="8.206"
         cy="9.315"
         r="0.15"
         id="circle450" />
      <circle
         style="stroke:none"
         cx="9.682"
         cy="9.475"
         r="0.15"
         id="circle452" />
      <circle
         style="stroke:none"
         cx="9.688"
         cy="6.186"
         r="0.15"
         id="circle454" />
      <circle
         style="stroke:none"
         cx="3.379"
         cy="6.296"
         r="0.15"
         id="circle456" />
      <circle
         style="stroke:none"
         cx="2.871"
         cy="8.204"
         r="0.15"
         id="circle458" />
      <circle
         style="stroke:none"
         cx="4.59"
         cy="8.719"
         r="0.15"
         id="circle460" />
      <circle
         style="stroke:none"
         cx="3.181"
         cy="9.671"
         r="0.15"
         id="circle462" />
      <circle
         style="stroke:none"
         cx="5.734"
         cy="7.315"
         r="0.15"
         id="circle464" />
      <circle
         style="stroke:none"
         cx="6.707"
         cy="6.513"
         r="0.15"
         id="circle466" />
      <circle
         style="stroke:none"
         cx="5.730"
         cy="9.670"
         r="0.15"
         id="circle468" />
      <circle
         style="stroke:none"
         cx="6.535"
         cy="8.373"
         r="0.15"
         id="circle470" />
      <circle
         style="stroke:none"
         cx="4.37"
         cy="7.154"
         r="0.15"
         id="circle472" />
      <circle
         style="stroke:none"
         cx="0.622"
         cy="7.25"
         r="0.15"
         id="circle474" />
      <circle
         style="stroke:none"
         cx="0.831"
         cy="5.679"
         r="0.15"
         id="circle476" />
      <circle
         style="stroke:none"
         cx="1.257"
         cy="8.519"
         r="0.15"
         id="circle478" />
      <circle
         style="stroke:none"
         cx="1.989"
         cy="6.877"
         r="0.15"
         id="circle480" />
      <circle
         style="stroke:none"
         cx="0.374"
         cy="3.181"
         r="0.15"
         id="circle482" />
      <circle
         style="stroke:none"
         cx="1.166"
         cy="1.664"
         r="0.15"
         id="circle484" />
      <circle
         style="stroke:none"
         cx="1.151"
         cy="0.093"
         r="0.15"
         id="circle486" />
      <circle
         style="stroke:none"
         cx="1.151"
         cy="10.093"
         r="0.15"
         id="circle488" />
      <circle
         style="stroke:none"
         cx="1.302"
         cy="4.451"
         r="0.15"
         id="circle490" />
      <circle
         style="stroke:none"
         cx="3.047"
         cy="3.763"
         r="0.15"
         id="circle492" />
    </pattern>
    <linearGradient
       id="linearGradient52"
       inkscape:collect="always">
      <stop
         style="stop-color:#71341c;stop-opacity:1;"
         offset="0.36851212"
         id="stop51" />
      <stop
         style="stop-color:#d06c44;stop-opacity:1;"
         offset="1"
         id="stop52" />
    </linearGradient>
    <linearGradient
       id="linearGradient50"
       inkscape:collect="always">
      <stop
         style="stop-color:#d06941;stop-opacity:1;"
         offset="0"
         id="stop49" />
      <stop
         style="stop-color:#b6542d;stop-opacity:1;"
         offset="1"
         id="stop50" />
    </linearGradient>
    <linearGradient
       id="linearGradient30"
       inkscape:collect="always">
      <stop
         style="stop-color:#f2ddc1;stop-opacity:1;"
         offset="0"
         id="stop30" />
      <stop
         style="stop-color:#efe4db;stop-opacity:1;"
         offset="1"
         id="stop31" />
    </linearGradient>
    <linearGradient
       id="linearGradient25"
       inkscape:collect="always">
      <stop
         style="stop-color:#860707;stop-opacity:1;"
         offset="0.36851212"
         id="stop24" />
      <stop
         style="stop-color:#f51f1f;stop-opacity:1;"
         offset="1"
         id="stop25" />
    </linearGradient>
    <linearGradient
       id="linearGradient23"
       inkscape:collect="always">
      <stop
         style="stop-color:#ff1212;stop-opacity:1;"
         offset="0"
         id="stop22" />
      <stop
         style="stop-color:#d80b0b;stop-opacity:1;"
         offset="1"
         id="stop23" />
    </linearGradient>
    <linearGradient
       id="linearGradient20"
       inkscape:collect="always">
      <stop
         style="stop-color:#00e306;stop-opacity:1;"
         offset="0.23010381"
         id="stop20" />
      <stop
         style="stop-color:#008404;stop-opacity:1;"
         offset="0.77162629"
         id="stop21" />
    </linearGradient>
    <linearGradient
       id="linearGradient10"
       inkscape:collect="always">
      <stop
         style="stop-color:#1c3671;stop-opacity:1;"
         offset="0.36851212"
         id="stop9" />
      <stop
         style="stop-color:#446ed0;stop-opacity:1;"
         offset="1"
         id="stop10" />
    </linearGradient>
    <linearGradient
       id="linearGradient4"
       inkscape:collect="always">
      <stop
         style="stop-color:#416dd0;stop-opacity:1;"
         offset="0"
         id="stop3" />
      <stop
         style="stop-color:#2d57b6;stop-opacity:1;"
         offset="1"
         id="stop4" />
    </linearGradient>
    <linearGradient
       id="linearGradient1"
       inkscape:collect="always">
      <stop
         style="stop-color:#fae2c6;stop-opacity:1;"
         offset="0"
         id="stop1" />
      <stop
         style="stop-color:#f9d1a6;stop-opacity:1;"
         offset="1"
         id="stop2" />
    </linearGradient>
    <linearGradient
       id="linearGradient7"
       inkscape:collect="always">
      <stop
         style="stop-color:#ff7d12;stop-opacity:1;"
         offset="0"
         id="stop7" />
      <stop
         style="stop-color:#d8690b;stop-opacity:1;"
         offset="1"
         id="stop8" />
    </linearGradient>
    <linearGradient
       id="linearGradient5"
       inkscape:collect="always">
      <stop
         style="stop-color:#864007;stop-opacity:1;"
         offset="0.36851212"
         id="stop5" />
      <stop
         style="stop-color:#f5801f;stop-opacity:1;"
         offset="1"
         id="stop6" />
    </linearGradient>
    <filter
       inkscape:collect="always"
       style="color-interpolation-filters:sRGB"
       id="filter6"
       x="-0.064520205"
       y="-0.10575856"
       width="1.1290404"
       height="1.2115171">
      <feGaussianBlur
         inkscape:collect="always"
         stdDeviation="0.30252533"
         id="feGaussianBlur6" />
    </filter>
    <radialGradient
       inkscape:collect="always"
       xlink:href="#linearGradient7"
       id="radialGradient8"
       cx="75.18811"
       cy="17.554588"
       fx="75.18811"
       fy="17.554588"
       r="0.79756057"
       gradientUnits="userSpaceOnUse"
       gradientTransform="matrix(1.2243246,0,0,1.2243246,-35.23862,-4.6108854)" />
    <radialGradient
       inkscape:collect="always"
       xlink:href="#linearGradient5"
       id="radialGradient9"
       cx="75.636642"
       cy="18.026127"
       fx="75.636642"
       fy="18.026127"
       r="0.69405204"
       gradientUnits="userSpaceOnUse"
       gradientTransform="translate(-18.25625,-0.66145833)" />
    <linearGradient
       inkscape:collect="always"
       xlink:href="#linearGradient1"
       id="linearGradient2"
       x1="33.756454"
       y1="29.34029"
       x2="41.897209"
       y2="52.802185"
       gradientUnits="userSpaceOnUse" />
    <radialGradient
       inkscape:collect="always"
       xlink:href="#linearGradient10"
       id="radialGradient9-4"
       cx="75.636642"
       cy="18.026127"
       fx="75.636642"
       fy="18.026127"
       r="0.69405204"
       gradientUnits="userSpaceOnUse"
       gradientTransform="translate(-37.384642,8.3706674)" />
    <radialGradient
       inkscape:collect="always"
       xlink:href="#linearGradient4"
       id="radialGradient8-2"
       cx="75.18811"
       cy="17.554588"
       fx="75.18811"
       fy="17.554588"
       r="0.79756057"
       gradientUnits="userSpaceOnUse"
       gradientTransform="matrix(1.2243246,0,0,1.2243246,-53.927863,4.3073869)" />
    <radialGradient
       inkscape:collect="always"
       xlink:href="#linearGradient10"
       id="radialGradient9-4-6"
       cx="75.636642"
       cy="18.026127"
       fx="75.636642"
       fy="18.026127"
       r="0.69405204"
       gradientUnits="userSpaceOnUse"
       gradientTransform="translate(53.877206,7.7669896)" />
    <radialGradient
       inkscape:collect="always"
       xlink:href="#linearGradient4"
       id="radialGradient8-2-4"
       cx="75.18811"
       cy="17.554588"
       fx="75.18811"
       fy="17.554588"
       r="0.79756057"
       gradientUnits="userSpaceOnUse"
       gradientTransform="matrix(1.2243246,0,0,1.2243246,37.333985,3.7037096)" />
    <radialGradient
       inkscape:collect="always"
       xlink:href="#linearGradient20"
       id="radialGradient21"
       cx="115.65598"
       cy="51.891403"
       fx="115.65598"
       fy="51.891403"
       r="0.78272575"
       gradientUnits="userSpaceOnUse"
       gradientTransform="translate(0,-26.061458)" />
    <radialGradient
       inkscape:collect="always"
       xlink:href="#linearGradient5"
       id="radialGradient9-6"
       cx="75.636642"
       cy="18.026127"
       fx="75.636642"
       fy="18.026127"
       r="0.69405204"
       gradientUnits="userSpaceOnUse"
       gradientTransform="translate(-1.3452584,-48.714752)" />
    <radialGradient
       inkscape:collect="always"
       xlink:href="#linearGradient7"
       id="radialGradient8-9"
       cx="75.18811"
       cy="17.554588"
       fx="75.18811"
       fy="17.554588"
       r="0.79756057"
       gradientUnits="userSpaceOnUse"
       gradientTransform="matrix(1.2243246,0,0,1.2243246,-18.327628,-52.664179)" />
    <radialGradient
       inkscape:collect="always"
       xlink:href="#linearGradient25"
       id="radialGradient9-8"
       cx="75.636642"
       cy="18.026127"
       fx="75.636642"
       fy="18.026127"
       r="0.69405204"
       gradientUnits="userSpaceOnUse"
       gradientTransform="translate(-6.1296331,5.8651812)" />
    <radialGradient
       inkscape:collect="always"
       xlink:href="#linearGradient23"
       id="radialGradient8-8"
       cx="75.18811"
       cy="17.554588"
       fx="75.18811"
       fy="17.554588"
       r="0.79756057"
       gradientUnits="userSpaceOnUse"
       gradientTransform="matrix(1.2243246,0,0,1.2243246,-23.112003,1.9157542)" />
    <filter
       inkscape:collect="always"
       style="color-interpolation-filters:sRGB"
       id="filter25"
       x="-0.017321175"
       y="-0.013764826"
       width="1.0346423"
       height="1.0275297">
      <feGaussianBlur
         inkscape:collect="always"
         stdDeviation="0.070554475"
         id="feGaussianBlur25" />
    </filter>
    <filter
       inkscape:collect="always"
       style="color-interpolation-filters:sRGB"
       id="filter26"
       x="-0.039056459"
       y="-0.026112987"
       width="1.0781132"
       height="1.0522322">
      <feGaussianBlur
         inkscape:collect="always"
         stdDeviation="0.24738008"
         id="feGaussianBlur26" />
    </filter>
    <linearGradient
       inkscape:collect="always"
       xlink:href="#linearGradient30"
       id="linearGradient31"
       x1="60.511139"
       y1="56.373577"
       x2="72.371132"
       y2="31.490786"
       gradientUnits="userSpaceOnUse" />
    <filter
       inkscape:collect="always"
       style="color-interpolation-filters:sRGB"
       id="filter46"
       x="-0.045667009"
       y="-0.031768354"
       width="1.091334"
       height="1.0635367">
      <feGaussianBlur
         inkscape:collect="always"
         stdDeviation="0.25831521"
         id="feGaussianBlur46" />
    </filter>
    <radialGradient
       inkscape:collect="always"
       xlink:href="#linearGradient52"
       id="radialGradient9-4-6-4"
       cx="75.636642"
       cy="18.026127"
       fx="75.636642"
       fy="18.026127"
       r="0.69405204"
       gradientUnits="userSpaceOnUse"
       gradientTransform="translate(34.602153,-100.70985)" />
    <radialGradient
       inkscape:collect="always"
       xlink:href="#linearGradient50"
       id="radialGradient8-2-4-6"
       cx="75.18811"
       cy="17.554588"
       fx="75.18811"
       fy="17.554588"
       r="0.79756057"
       gradientUnits="userSpaceOnUse"
       gradientTransform="matrix(1.2243246,0,0,1.2243246,18.058932,-104.77313)" />
    <radialGradient
       inkscape:collect="always"
       xlink:href="#linearGradient10"
       id="radialGradient9-4-6-1"
       cx="75.636642"
       cy="18.026127"
       fx="75.636642"
       fy="18.026127"
       r="0.69405204"
       gradientUnits="userSpaceOnUse"
       gradientTransform="matrix(1.0649978,0,0,1.0649978,11.74647,-1.8391747)" />
    <radialGradient
       inkscape:collect="always"
       xlink:href="#linearGradient4"
       id="radialGradient8-2-4-3"
       cx="75.18811"
       cy="17.554588"
       fx="75.18811"
       fy="17.554588"
       r="0.79756057"
       gradientUnits="userSpaceOnUse"
       gradientTransform="matrix(1.303903,0,0,1.303903,-5.8720238,-6.1665589)" />
    <radialGradient
       inkscape:collect="always"
       xlink:href="#linearGradient52"
       id="radialGradient9-4-6-4-1"
       cx="75.636642"
       cy="18.026127"
       fx="75.636642"
       fy="18.026127"
       r="0.69405204"
       gradientUnits="userSpaceOnUse"
       gradientTransform="translate(46.908891,-22.063635)" />
    <radialGradient
       inkscape:collect="always"
       xlink:href="#linearGradient50"
       id="radialGradient8-2-4-6-2"
       cx="75.18811"
       cy="17.554588"
       fx="75.18811"
       fy="17.554588"
       r="0.79756057"
       gradientUnits="userSpaceOnUse"
       gradientTransform="matrix(1.2243246,0,0,1.2243246,30.36567,-26.126915)" />
  </defs>
  <g
     inkscape:label="Layer 1"
     inkscape:groupmode="layer"
     id="layer1"
     transform="translate(-12.593707,-8.9503984)">
    <rect
       style="fill:url(#pattern57);fill-opacity:1;stroke:#503420;stroke-width:5;stroke-linecap:square;stroke-linejoin:miter;stroke-dasharray:none;stroke-opacity:1"
       id="rect1-3"
       width="124.13272"
       height="78.331139"
       x="15.093707"
       y="11.450398" />
    <rect
       style="fill:#d2a26a;fill-opacity:0.845098;stroke:#503420;stroke-width:5;stroke-linecap:square;stroke-linejoin:miter;stroke-dasharray:none;stroke-opacity:1"
       id="rect1"
       width="124.13272"
       height="78.331139"
       x="15.093707"
       y="11.450398" />
    <path
       style="opacity:1;fill:none;fill-opacity:1;stroke:#272727;stroke-width:0.319499;stroke-linecap:square;stroke-linejoin:round;stroke-dasharray:none;stroke-opacity:1"
       d="m 81.837852,23.037818 10.585105,-5.554066 9.464333,5.753315"
       id="path57" />
    <path
       style="fill:none;stroke:#000000;stroke-width:0.352778;stroke-linecap:square;stroke-linejoin:round;stroke-dasharray:none;filter:url(#filter26)"
       d="m 34.313023,25.911594 c 3.571039,0.11501 10.494599,0.448537 13.85287,0.218518 0,0 0.115009,4.669377 0.212767,10.64986 0.09776,5.980482 0.178265,13.272071 0.109259,18.516495 -2.737221,0.184015 -6.843053,0.09201 -10.661362,0 -3.818308,-0.09201 -7.349093,-0.184015 -8.936222,0 -0.184015,-1.265102 -0.06901,-8.54519 0.09201,-15.509002 0.08051,-3.481906 0.05751,-9.368944 0.129386,-11.901305 1.968228,-0.850613 3.467917,-1.411828 5.201292,-1.974566 z"
       id="rect9-3"
       sodipodi:nodetypes="ccscscscc" />
    <path
       id="rect21-4-5"
       style="fill:none;fill-opacity:1;stroke:#000000;stroke-width:0.176389;stroke-linecap:square;stroke-linejoin:round;stroke-dasharray:none;filter:url(#filter25)"
       d="M 33.863049,64.358346 V 83.067281 H 48.730703 V 64.358346 Z m 1.49655,2.806547 c 0.271291,-1.85e-4 0.491343,0.219635 0.491443,0.490926 1.85e-4,0.271493 -0.21995,0.491628 -0.491443,0.491443 -0.271291,-1e-4 -0.491111,-0.220152 -0.490926,-0.491443 10e-5,-0.271089 0.219837,-0.490826 0.490926,-0.490926 z m 0,11.692826 c 0.271493,-1.85e-4 0.491628,0.21995 0.491443,0.491443 -10e-5,0.271291 -0.220152,0.491111 -0.491443,0.490926 -0.271089,-10e-5 -0.490826,-0.219837 -0.490926,-0.490926 -1.85e-4,-0.271291 0.219635,-0.491343 0.490926,-0.491443 z"
       sodipodi:nodetypes="ccccccccccccccc" />
    <rect
       style="fill:none;fill-opacity:1;stroke:#000000;stroke-width:0.5;stroke-linecap:square;stroke-linejoin:miter;stroke-dasharray:none;stroke-opacity:1;filter:url(#filter6)"
       id="rect2-6"
       width="15.127987"
       height="9.2291422"
       x="70.025208"
       y="19.656796"
       transform="rotate(-0.99777485,-47.110454,1047.9816)" />
    <rect
       style="fill:#ad6182;fill-opacity:1;stroke:#000000;stroke-width:0.2;stroke-linecap:square;stroke-linejoin:miter;stroke-dasharray:none;stroke-opacity:1"
       id="rect2"
       width="15.127987"
       height="9.2291422"
       x="51.783245"
       y="18.67753"
       transform="rotate(-0.99777485)" />
    <rect
       style="fill:#ae6384;fill-opacity:1;stroke:#000000;stroke-width:0.2;stroke-linecap:square;stroke-linejoin:miter;stroke-dasharray:none;stroke-opacity:1"
       id="rect2-8"
       width="15.127987"
       height="9.2291422"
       x="51.525154"
       y="17.171267" />
    <rect
       style="fill:#ba7995;fill-opacity:1;stroke:#000000;stroke-width:0.2;stroke-linecap:square;stroke-linejoin:miter;stroke-dasharray:none;stroke-opacity:1"
       id="rect2-8-1"
       width="15.127987"
       height="9.2291422"
       x="51.328632"
       y="15.991016"
       transform="rotate(0.65181265)" />
    <rect
       style="fill:#d0a4b7;fill-opacity:1;stroke:#000000;stroke-width:0.2;stroke-linecap:square;stroke-linejoin:miter;stroke-dasharray:none;stroke-opacity:1"
       id="rect2-8-2"
       width="15.127987"
       height="9.2291422"
       x="49.981003"
       y="18.292767"
       transform="rotate(-1.3907541)" />
    <path
       style="fill:none;fill-opacity:1;stroke:#000000;stroke-width:0.1;stroke-linecap:square;stroke-linejoin:miter;stroke-dasharray:none;stroke-opacity:1"
       d="m 53.364601,19.83252 c 0.782064,-1.127091 -0.09201,-1.748141 0.71306,-1.081087 0.805064,0.667054 0.276022,1.541124 0.667052,0.851069 0.391033,-0.690056 -0.253018,-0.460038 0.71306,-0.483039 0.966076,-0.023 1.2651,-0.299024 0.966076,-0.023 -0.299024,0.276022 0.391033,-0.667054 0.253021,-0.06901 -0.138012,0.598049 -0.184015,0.299024 0.414033,0.299024 0.598048,0 0.115009,0.09201 0.759063,0.023 0.644051,-0.069 -0.184015,-1.196096 0.989079,-0.552044 1.173093,0.644052 1.518123,0.667054 1.679135,0.667054 0.161013,0 -0.276021,0.138011 0.782064,0.138011 1.058084,0 1.242099,0.184015 1.242099,-0.046 0,-0.230018 -0.690054,-0.805065 -0.690054,-0.805065 0,0 0.36803,-0.184015 -0.253021,-0.138011 -0.621051,0.046 -1.10409,0.138011 -0.276021,0.207017 0.828066,0.069 1.886151,-0.09201 1.886151,-0.09201"
       id="path2" />
    <path
       style="fill:none;fill-opacity:1;stroke:#000000;stroke-width:0.160857;stroke-linecap:square;stroke-linejoin:miter;stroke-dasharray:none;stroke-opacity:1"
       d="m 52.351646,22.369864 c 1.623096,-0.983283 1.915785,-2.080901 1.70292,-0.868948 -0.212865,1.211954 -1.037716,1.211954 -0.02659,1.280555 1.011107,0.06861 1.170756,-1.074751 1.383621,-1.00615 0.212865,0.0686 0.478945,-0.182936 0.904675,0.04573 0.42573,0.228671 -0.239474,0.04573 0.851461,0.548809 1.09093,0.503076 0.69181,0.114335 1.436835,-0.182936 0.745027,-0.297272 1.995607,-1.417757 0.478945,-1.074751 -1.51666,0.343006 -3.272795,0.548809 -1.862565,1.00615 1.41023,0.457341 3.751741,0.708878 4.496767,0.503075 0.745026,-0.205803 1.303796,-0.754613 -0.957891,-1.372023 -2.261686,-0.61741 -1.676311,0.77748 -0.345905,0.937549 1.330405,0.160069 1.782742,0.09147 2.261687,-0.365873 0.478945,-0.457341 -0.771635,-2.218104 0.585379,-0.480208"
       id="path3" />
    <path
       style="fill:none;fill-opacity:1;stroke:#000000;stroke-width:0.1;stroke-linecap:square;stroke-linejoin:miter;stroke-dasharray:none;stroke-opacity:1"
       d="m 56.836132,24.375726 c 1.196096,-0.138011 1.265102,-0.184015 1.265102,-0.184015 0,0 0.621049,0.276023 1.127091,-0.138011 0.506039,-0.414033 1.196096,-1.909154 1.081087,-0.736059 -0.115009,1.173095 1.518121,1.219098 1.633133,1.150093 0.115009,-0.06901 0.069,-0.322026 0.644051,-0.207017 0.575046,0.115009 1.518121,0.667054 1.219097,0.184015 -0.299024,-0.483039 -0.552042,-0.506041 -0.552042,-0.506041"
       id="path4" />
    <circle
       style="fill:url(#radialGradient9);stroke:#000000;stroke-width:0.1;stroke-linecap:square;stroke-linejoin:miter;stroke-dasharray:none;stroke-opacity:1"
       id="path5"
       cx="57.380394"
       cy="17.364668"
       r="0.64405203" />
    <circle
       style="fill:url(#radialGradient8);fill-opacity:1;stroke:#000000;stroke-width:0.1;stroke-linecap:square;stroke-linejoin:miter;stroke-dasharray:none;stroke-opacity:1"
       id="path5-2"
       cx="56.816032"
       cy="16.881628"
       r="0.90612704" />
    <path
       style="fill:#f6431b;fill-opacity:1;stroke:#000000;stroke-width:0.1;stroke-linecap:square;stroke-linejoin:miter;stroke-dasharray:none;stroke-opacity:1"
       d="m 57.863439,17.836206 0.253021,0.241519"
       id="path6"
       sodipodi:nodetypes="cc" />
    <path
       style="fill:#f7d1a4;fill-opacity:1;stroke:#000000;stroke-width:0.2;stroke-linecap:square;stroke-linejoin:round"
       d="m 33.122676,28.683318 c 0.529043,-1.012081 0.86257,-1.828647 1.190346,-2.771724 L 29.11173,27.88616 c 1.405988,0.273866 2.561832,0.544138 4.010949,0.797158 z"
       id="path1"
       sodipodi:nodetypes="sccss" />
    <path
       style="fill:url(#linearGradient2);stroke:#000000;stroke-width:0.2;stroke-linecap:square;stroke-linejoin:round"
       d="m 33.122677,28.683318 c 0.529043,-1.012081 0.86257,-1.828647 1.190346,-2.771724 3.571039,0.11501 10.494599,0.448537 13.85287,0.218518 0,0 0.115009,4.669377 0.212767,10.64986 0.09776,5.980482 0.178265,13.272071 0.109259,18.516495 -2.737221,0.184015 -6.843053,0.09201 -10.661362,0 -3.818308,-0.09201 -7.349093,-0.184015 -8.936222,0 -0.184015,-1.265102 -0.06901,-8.54519 0.09201,-15.509002 0.08051,-3.481906 0.05751,-9.368944 0.129386,-11.901305 1.405988,0.273866 2.561832,0.544138 4.010949,0.797158 z"
       id="rect9" />
    <circle
       style="fill:url(#radialGradient9-4);stroke:#000000;stroke-width:0.1;stroke-linecap:square;stroke-linejoin:miter;stroke-dasharray:none;stroke-opacity:1"
       id="path5-7"
       cx="38.252003"
       cy="26.396795"
       r="0.64405203" />
    <circle
       style="fill:url(#radialGradient8-2);fill-opacity:1;stroke:#000000;stroke-width:0.1;stroke-linecap:square;stroke-linejoin:miter;stroke-dasharray:none;stroke-opacity:1"
       id="path5-2-1"
       cx="38.126789"
       cy="25.799902"
       r="0.90612704" />
    <path
       style="fill:#f6431b;fill-opacity:1;stroke:#000000;stroke-width:0.1;stroke-linecap:square;stroke-linejoin:miter;stroke-dasharray:none;stroke-opacity:1"
       d="m 38.40162,27.055377 0.06598,0.225254"
       id="path6-1"
       sodipodi:nodetypes="cc" />
    <path
       id="path11"
       style="fill:none;fill-opacity:1;stroke:#000000;stroke-width:0.0508699;stroke-linecap:square;stroke-linejoin:round;stroke-dasharray:none"
       d="m 43.485921,53.633058 c 0.163814,-0.280825 0.280824,-0.608453 0.461935,-0.369403 -0.263526,0.473071 0.66846,0.467269 0.715264,0.303456 0.0468,-0.163814 -0.311324,-1.010545 -0.194315,-0.308486 0.117011,0.702061 0.374434,-0.35103 0.585052,-0.0468 0.210617,0.304227 1.663352,0.347474 1.263708,0.608453 -0.31911,0.208387 -0.779364,0.09422 -0.878042,-0.06299 -0.186625,-0.29731 1.018455,-0.405054 1.018455,-0.405054"
       sodipodi:nodetypes="ccsssssc" />
    <path
       style="fill:none;fill-opacity:1;stroke:#000000;stroke-width:0.352777;stroke-linecap:square;stroke-linejoin:round;stroke-dasharray:none"
       d="m 38.430729,53.379687 h 3.63802"
       id="path15" />
    <path
       style="fill:none;fill-opacity:1;stroke:#000000;stroke-width:0.176389;stroke-linecap:square;stroke-linejoin:round;stroke-dasharray:none"
       d="m 32.808333,34.461979 2.38125,0 m 0.363802,0 9.954948,0"
       id="path16"
       sodipodi:nodetypes="cccc" />
    <path
       style="fill:none;fill-opacity:1;stroke:#000000;stroke-width:0.176389;stroke-linecap:square;stroke-linejoin:round;stroke-dasharray:none"
       d="m 30.95625,35.321875 11.1125,0 m 0.628385,0 3.009635,0"
       id="path17"
       sodipodi:nodetypes="cccc" />
    <path
       style="fill:none;fill-opacity:1;stroke:#000000;stroke-width:0.176389;stroke-linecap:square;stroke-linejoin:round;stroke-dasharray:none"
       d="m 30.823958,36.314062 2.976562,0 m 0.297656,0 11.542448,0"
       id="path18"
       sodipodi:nodetypes="cccc" />
    <path
       style="fill:none;fill-opacity:1;stroke:#000000;stroke-width:0.176389;stroke-linecap:square;stroke-linejoin:round;stroke-dasharray:none"
       d="m 30.823958,37.240104 h 7.573698 m 0.496094,0 7.077604,0"
       id="path19"
       sodipodi:nodetypes="cccc" />
    <path
       style="fill:none;fill-opacity:1;stroke:#000000;stroke-width:0.176389;stroke-linecap:square;stroke-linejoin:round;stroke-dasharray:none"
       d="m 30.823958,38.232291 9.359635,0 m 0.463021,0 4.99401,0"
       id="path18-4"
       sodipodi:nodetypes="cccc" />
    <path
       style="fill:none;fill-opacity:1;stroke:#000000;stroke-width:0.176389;stroke-linecap:square;stroke-linejoin:round;stroke-dasharray:none"
       d="m 30.823958,39.158333 5.655469,0 m 0.330729,0 9.161198,0"
       id="path19-2"
       sodipodi:nodetypes="cccc" />
    <path
       style="fill:none;fill-opacity:1;stroke:#000000;stroke-width:0.176389;stroke-linecap:square;stroke-linejoin:round;stroke-dasharray:none"
       d="m 30.95625,40.084375 8.301302,0 m 0.264583,0 h 6.184635"
       id="path17-6"
       sodipodi:nodetypes="cccc" />
    <path
       style="fill:none;fill-opacity:1;stroke:#000000;stroke-width:0.176389;stroke-linecap:square;stroke-linejoin:round;stroke-dasharray:none"
       d="m 30.746276,41.076562 6.956849,0 m 0.396875,0 0.937578,0"
       id="path18-8"
       sodipodi:nodetypes="cccc" />
    <path
       style="fill:none;fill-opacity:1;stroke:#000000;stroke-width:0.176389;stroke-linecap:square;stroke-linejoin:round;stroke-dasharray:none"
       d="m 30.823958,42.002604 8.367448,0 m 0.330729,0 h 6.449219"
       id="path19-5"
       sodipodi:nodetypes="cccc" />
    <path
       style="fill:none;fill-opacity:1;stroke:#000000;stroke-width:0.176389;stroke-linecap:square;stroke-linejoin:round;stroke-dasharray:none"
       d="m 30.823958,42.994791 9.624218,0 m 0.297657,0 4.894791,0"
       id="path18-4-7"
       sodipodi:nodetypes="cccc" />
    <path
       style="fill:none;fill-opacity:1;stroke:#000000;stroke-width:0.176389;stroke-linecap:square;stroke-linejoin:round;stroke-dasharray:none"
       d="m 30.823958,43.920833 4.398698,0 m 0.297656,0 h 10.451042"
       id="path19-2-6"
       sodipodi:nodetypes="cccc" />
    <path
       style="fill:none;fill-opacity:1;stroke:#000000;stroke-width:0.176389;stroke-linecap:square;stroke-linejoin:round;stroke-dasharray:none"
       d="m 30.95625,44.780729 h 5.126302 m 0.562239,0.01654 9.061979,-0.01654"
       id="path17-6-7"
       sodipodi:nodetypes="cccc" />
    <path
       style="fill:none;fill-opacity:1;stroke:#000000;stroke-width:0.176389;stroke-linecap:square;stroke-linejoin:round;stroke-dasharray:none"
       d="m 30.823958,45.772916 10.451041,0 m 0.198438,0 4.167187,0"
       id="path18-8-9"
       sodipodi:nodetypes="cccc" />
    <path
       style="fill:none;fill-opacity:1;stroke:#000000;stroke-width:0.176389;stroke-linecap:square;stroke-linejoin:round;stroke-dasharray:none"
       d="m 30.823958,46.698958 5.027083,0 m 0.429948,0 h 9.690365"
       id="path19-5-5"
       sodipodi:nodetypes="cccc" />
    <path
       style="fill:none;fill-opacity:1;stroke:#000000;stroke-width:0.176389;stroke-linecap:square;stroke-linejoin:round;stroke-dasharray:none"
       d="m 30.823958,47.691145 1.02526,0 m 0.198438,0 13.592968,0"
       id="path18-4-7-4"
       sodipodi:nodetypes="cccc" />
    <path
       style="fill:none;fill-opacity:1;stroke:#000000;stroke-width:0.176389;stroke-linecap:square;stroke-linejoin:round;stroke-dasharray:none"
       d="m 30.823958,48.617187 h 10.153386 m 0.46302,0 h 4.53099"
       id="path19-2-6-3"
       sodipodi:nodetypes="cccc" />
    <path
       id="rect19"
       style="fill:#ffe666;stroke:#000000;stroke-width:0.176389;stroke-linecap:square;stroke-linejoin:round"
       d="m 109.44687,24.452485 c 4.39658,0.467721 8.41899,0 12.62848,0 -0.46772,3.648229 -0.46772,7.857723 0.0935,11.786585 -3.83532,0.65481 -6.73519,0.65481 -12.90912,-0.467722 -0.46772,-4.022406 -0.37418,-7.857723 0.18709,-11.318863 z"
       sodipodi:nodetypes="ccccc" />
    <path
       id="rect19-4"
       style="fill:#ffe666;stroke:#000000;stroke-width:0.176389;stroke-linecap:square;stroke-linejoin:round"
       d="m 123.93378,37.029729 c 0.42595,-4.400827 0.0136,-7.670253 -0.11993,-12.627911 3.65251,-0.128209 7.207,-0.168183 11.03682,0.262293 0.41057,4.01602 0.62519,7.851199 0.40324,12.44526 -3.73715,-0.148917 -7.57319,0.355245 -11.32013,-0.07959 z"
       sodipodi:nodetypes="cccccc" />
    <circle
       style="fill:url(#radialGradient9-4-6);stroke:#000000;stroke-width:0.1;stroke-linecap:square;stroke-linejoin:miter;stroke-dasharray:none;stroke-opacity:1"
       id="path5-7-8"
       cx="129.51385"
       cy="25.793118"
       r="0.64405203" />
    <circle
       style="fill:url(#radialGradient8-2-4);fill-opacity:1;stroke:#000000;stroke-width:0.1;stroke-linecap:square;stroke-linejoin:miter;stroke-dasharray:none;stroke-opacity:1"
       id="path5-2-1-8"
       cx="129.38864"
       cy="25.196224"
       r="0.90612704" />
    <path
       style="fill:#f6431b;fill-opacity:1;stroke:#000000;stroke-width:0.1;stroke-linecap:square;stroke-linejoin:miter;stroke-dasharray:none;stroke-opacity:1"
       d="m 129.66347,26.4517 0.066,0.225254"
       id="path6-1-2"
       sodipodi:nodetypes="cc" />
    <circle
       style="fill:url(#radialGradient9-4-6-1);stroke:#000000;stroke-width:0.1065;stroke-linecap:square;stroke-linejoin:miter;stroke-dasharray:none;stroke-opacity:1"
       id="path5-7-8-8"
       cx="92.299339"
       cy="17.358612"
       r="0.68591398" />
    <circle
       style="fill:url(#radialGradient8-2-4-3);fill-opacity:1;stroke:#000000;stroke-width:0.1065;stroke-linecap:square;stroke-linejoin:miter;stroke-dasharray:none;stroke-opacity:1"
       id="path5-2-1-8-2"
       cx="92.165985"
       cy="16.722921"
       r="0.96502328" />
    <path
       id="rect19-4-5"
       style="fill:#ffe666;stroke:#000000;stroke-width:0.176389;stroke-linecap:square;stroke-linejoin:round"
       d="m 125.05627,54.460406 c -1.4294,-3.678494 -1.54639,-8.792077 -2.3245,-12.412703 3.21782,-0.499692 8.071,-1.065617 11.36877,-1.751056 0.46622,4.063208 1.23003,9.031989 1.63975,11.475381 -1.1877,1.067209 -6.89671,1.450292 -10.68401,2.68843 z"
       sodipodi:nodetypes="cccccc" />
    <circle
       style="fill:url(#radialGradient9-4-6-4);stroke:#000000;stroke-width:0.1;stroke-linecap:square;stroke-linejoin:miter;stroke-dasharray:none;stroke-opacity:1"
       id="path5-7-8-4"
       cx="110.23879"
       cy="-82.683723"
       r="0.64405203"
       transform="rotate(54.353421)"
       inkscape:transform-center-x="0.75803662"
       inkscape:transform-center-y="0.32251363" />
    <circle
       style="fill:url(#radialGradient8-2-4-6);fill-opacity:1;stroke:#000000;stroke-width:0.1;stroke-linecap:square;stroke-linejoin:miter;stroke-dasharray:none;stroke-opacity:1"
       id="path5-2-1-8-9"
       cx="110.11358"
       cy="-83.280617"
       r="0.90612704"
       transform="rotate(54.353421)"
       inkscape:transform-center-x="0.34595732"
       inkscape:transform-center-y="-0.12709812" />
    <path
       style="fill:#f6431b;fill-opacity:1;stroke:#000000;stroke-width:0.1;stroke-linecap:square;stroke-linejoin:miter;stroke-dasharray:none;stroke-opacity:1"
       d="m 130.98845,41.901716 -0.14458,0.184908"
       id="path6-1-2-1"
       sodipodi:nodetypes="cc"
       inkscape:transform-center-x="1.2783062"
       inkscape:transform-center-y="0.92037164" />
    <path
       id="rect19-4-5-9"
       style="fill:#ffe666;stroke:#000000;stroke-width:0.176389;stroke-linecap:square;stroke-linejoin:round"
       d="m 108.91543,42.086323 c 3.2551,-0.09167 8.40551,-0.109846 11.43251,0.08726 0.34918,4.08959 0.15235,8.718078 0.25196,11.193579 -3.0321,-0.413295 -8.07661,0.315543 -11.25945,-0.111696 -0.42329,-1.877176 -0.10771,-7.479468 -0.42502,-11.169143 z"
       sodipodi:nodetypes="ccccc" />
    <circle
       style="fill:url(#radialGradient9-4-6-4-1);stroke:#000000;stroke-width:0.1;stroke-linecap:square;stroke-linejoin:miter;stroke-dasharray:none;stroke-opacity:1"
       id="path5-7-8-4-1"
       cx="122.54552"
       cy="-4.0375123"
       r="0.64405203"
       transform="rotate(21.874856)"
       inkscape:transform-center-x="0.46629906"
       inkscape:transform-center-y="0.67911911" />
    <circle
       style="fill:url(#radialGradient8-2-4-6-2);fill-opacity:1;stroke:#000000;stroke-width:0.1;stroke-linecap:square;stroke-linejoin:miter;stroke-dasharray:none;stroke-opacity:1"
       id="path5-2-1-8-9-5"
       cx="122.42031"
       cy="-4.6344056"
       r="0.90612704"
       transform="rotate(21.874856)"
       inkscape:transform-center-x="0.36009935"
       inkscape:transform-center-y="0.078552886" />
    <path
       style="fill:#f6431b;fill-opacity:1;stroke:#000000;stroke-width:0.1;stroke-linecap:square;stroke-linejoin:miter;stroke-dasharray:none;stroke-opacity:1"
       d="m 115.12001,42.578192 -0.0227,0.233624"
       id="path6-1-2-1-0"
       sodipodi:nodetypes="cc"
       inkscape:transform-center-x="0.5841562"
       inkscape:transform-center-y="1.4628486" />
    <circle
       style="fill:url(#radialGradient21);stroke:#000000;stroke-width:0.176389;stroke-linecap:square;stroke-linejoin:round;stroke-dasharray:none"
       id="path20"
       cx="115.65598"
       cy="25.829945"
       r="0.69453126" />
    <path
       id="rect21"
       style="fill:#eeecdd;fill-opacity:1;stroke:none;stroke-width:0.176389;stroke-linecap:square;stroke-linejoin:round;stroke-dasharray:none"
       d="M 33.863049,64.358346 V 83.067281 H 48.730703 V 64.358346 Z m 1.49655,2.806547 c 0.271291,-1.85e-4 0.491343,0.219635 0.491443,0.490926 1.85e-4,0.271493 -0.21995,0.491628 -0.491443,0.491443 -0.271291,-1e-4 -0.491111,-0.220152 -0.490926,-0.491443 10e-5,-0.271089 0.219837,-0.490826 0.490926,-0.490926 z m 0,11.692826 c 0.271493,-1.85e-4 0.491628,0.21995 0.491443,0.491443 -10e-5,0.271291 -0.220152,0.491111 -0.491443,0.490926 -0.271089,-10e-5 -0.490826,-0.219837 -0.490926,-0.490926 -1.85e-4,-0.271291 0.219635,-0.491343 0.490926,-0.491443 z"
       sodipodi:nodetypes="ccccccccccccccc" />
    <path
       id="path22-3-6-0-7-6-7-6"
       style="fill:none;fill-opacity:1;stroke:#a6e0e7;stroke-width:0.0881944;stroke-linecap:square;stroke-linejoin:round;stroke-dasharray:none;stroke-opacity:1"
       d="M 33.85013,82.236306 H 48.696776 M 33.85013,81.574848 H 48.696776 M 33.85013,80.913389 H 48.696776 M 33.85013,80.251931 H 48.696776 M 33.85013,79.598741 h 1.058333 m 0.892969,0 H 48.696776 M 33.85013,78.937283 h 1.223088 m 0.578805,0 H 48.696776 M 33.85013,78.275824 H 48.696776 M 33.85013,77.614366 H 48.696776 M 33.85013,76.962179 H 48.696776 M 33.85013,76.300721 H 48.696776 M 33.85013,75.647531 H 48.696776 M 33.85013,74.986073 H 48.696776 M 33.85013,74.324614 H 48.696776 M 33.85013,73.663156 H 48.696776 M 33.85013,73.009966 H 48.696776 M 33.85013,72.348508 H 48.696776 M 33.85013,71.693813 H 48.696776 M 33.85013,71.032355 H 48.696776 M 33.85013,70.379165 H 48.696776 M 33.85013,69.717707 H 48.696776 M 33.85013,69.056248 H 48.696776 M 33.85013,68.39479 H 48.696776 M 33.85013,67.7416 h 1.008724 m 0.992187,0 H 48.696776 M 33.85013,67.080142 H 48.696776 M 33.85013,66.426952 h 14.846646"
       sodipodi:nodetypes="cccccccccccccccccccccccccccccccccccccccccccccccccccccccc" />
    <path
       style="fill:#655f32;fill-opacity:1;stroke:#752424;stroke-width:0.123472;stroke-linecap:square;stroke-linejoin:round;stroke-dasharray:none;stroke-opacity:1"
       d="M 36.622605,64.460658 V 83.020723"
       id="path21"
       sodipodi:nodetypes="cc" />
    <path
       id="rect21-4"
       style="fill:none;fill-opacity:1;stroke:#000000;stroke-width:0.176389;stroke-linecap:square;stroke-linejoin:round;stroke-dasharray:none"
       d="M 33.863049,64.358346 V 83.067281 H 48.730703 V 64.358346 Z m 1.49655,2.806547 c 0.271291,-1.85e-4 0.491343,0.219635 0.491443,0.490926 1.85e-4,0.271493 -0.21995,0.491628 -0.491443,0.491443 -0.271291,-1e-4 -0.491111,-0.220152 -0.490926,-0.491443 10e-5,-0.271089 0.219837,-0.490826 0.490926,-0.490926 z m 0,11.692826 c 0.271493,-1.85e-4 0.491628,0.21995 0.491443,0.491443 -10e-5,0.271291 -0.220152,0.491111 -0.491443,0.490926 -0.271089,-10e-5 -0.490826,-0.219837 -0.490926,-0.490926 -1.85e-4,-0.271291 0.219635,-0.491343 0.490926,-0.491443 z"
       sodipodi:nodetypes="ccccccccccccccc" />
    <circle
       style="fill:url(#radialGradient9-6);stroke:#000000;stroke-width:0.1;stroke-linecap:square;stroke-linejoin:miter;stroke-dasharray:none;stroke-opacity:1"
       id="path5-3"
       cx="74.291382"
       cy="-30.688629"
       r="0.64405203"
       transform="rotate(75.889734)" />
    <circle
       style="fill:url(#radialGradient8-9);fill-opacity:1;stroke:#000000;stroke-width:0.1;stroke-linecap:square;stroke-linejoin:miter;stroke-dasharray:none;stroke-opacity:1"
       id="path5-2-9"
       cx="73.72702"
       cy="-31.171669"
       r="0.90612704"
       transform="rotate(75.889734)" />
    <path
       style="fill:#f6431b;fill-opacity:1;stroke:#000000;stroke-width:0.1;stroke-linecap:square;stroke-linejoin:miter;stroke-dasharray:none;stroke-opacity:1"
       d="m 47.540402,65.151775 -0.172548,0.304267"
       id="path6-8"
       sodipodi:nodetypes="cc" />
    <circle
       style="fill:url(#radialGradient9-8);stroke:#000000;stroke-width:0.1;stroke-linecap:square;stroke-linejoin:miter;stroke-dasharray:none;stroke-opacity:1"
       id="path5-1"
       cx="69.507019"
       cy="23.891306"
       r="0.64405203"
       transform="rotate(42.631763)" />
    <circle
       style="fill:url(#radialGradient8-8);fill-opacity:1;stroke:#000000;stroke-width:0.1;stroke-linecap:square;stroke-linejoin:miter;stroke-dasharray:none;stroke-opacity:1"
       id="path5-2-0"
       cx="68.942657"
       cy="23.408266"
       r="0.90612704"
       transform="rotate(42.631763)" />
    <path
       style="fill:#f6431b;fill-opacity:1;stroke:#000000;stroke-width:0.1;stroke-linecap:square;stroke-linejoin:miter;stroke-dasharray:none;stroke-opacity:1"
       d="m 34.992642,65.327415 0.02258,0.349057"
       id="path6-7"
       sodipodi:nodetypes="cc" />
    <rect
       style="fill:#b06b15;fill-opacity:1;stroke:#000000;stroke-width:0.2;stroke-linecap:square;stroke-linejoin:round;stroke-dasharray:none;stroke-opacity:1"
       id="rect26"
       width="13.229166"
       height="8.4666662"
       x="68.923958"
       y="68.394791" />
    <path
       style="fill:#eaa44d;fill-opacity:1;stroke:none;stroke-width:0.2;stroke-linecap:square;stroke-linejoin:round;stroke-dasharray:none;stroke-opacity:1"
       d="m 82.107579,68.510042 -6.650645,4.759846 -6.438539,-4.759846 z"
       id="path26"
       sodipodi:nodetypes="cccc" />
    <path
       style="fill:#e79835;fill-opacity:1;stroke:none;stroke-width:0.2;stroke-linecap:square;stroke-linejoin:round;stroke-dasharray:none;stroke-opacity:1"
       d="m 82.107542,76.778271 v -8.137264 l -6.650608,4.777709 -6.438392,-4.777709 v 8.137264 z"
       id="path26-9"
       sodipodi:nodetypes="cccccc" />
    <rect
       style="opacity:0.640884;fill:#f8d185;fill-opacity:1;stroke:none;stroke-width:0.2;stroke-linecap:square;stroke-linejoin:round;stroke-dasharray:none;stroke-opacity:1"
       id="rect27"
       width="3.6950011"
       height="1.5902536"
       x="100.68174"
       y="9.002902"
       transform="rotate(42.592954)" />
    <rect
       style="opacity:0.640884;fill:#f8d185;fill-opacity:1;stroke:none;stroke-width:0.2;stroke-linecap:square;stroke-linejoin:round;stroke-dasharray:none;stroke-opacity:1"
       id="rect27-3"
       width="3.6950011"
       height="1.5902536"
       x="-14.285806"
       y="-112.42828"
       transform="rotate(139.38977)" />
    <rect
       style="opacity:0.640884;fill:#f8d185;fill-opacity:1;stroke:none;stroke-width:0.2;stroke-linecap:square;stroke-linejoin:round;stroke-dasharray:none;stroke-opacity:1"
       id="rect27-8"
       width="3.6950011"
       height="1.5902536"
       x="104.87266"
       y="-5.8536115"
       transform="rotate(42.592954)" />
    <rect
       style="opacity:0.640884;fill:#f8d185;fill-opacity:1;stroke:none;stroke-width:0.2;stroke-linecap:square;stroke-linejoin:round;stroke-dasharray:none;stroke-opacity:1"
       id="rect27-6"
       width="3.6950011"
       height="1.5902536"
       x="-14.223467"
       y="-97.297325"
       transform="rotate(141.94784)" />
    <rect
       style="fill:#1582b0;fill-opacity:1;stroke:#000000;stroke-width:0.2;stroke-linecap:square;stroke-linejoin:round;stroke-dasharray:none;stroke-opacity:1"
       id="rect26-5"
       width="13.229166"
       height="8.4666662"
       x="110.83182"
       y="68.394791" />
    <path
       style="fill:#b7d6e6;fill-opacity:1;stroke:none;stroke-width:0.2;stroke-linecap:square;stroke-linejoin:round;stroke-dasharray:none;stroke-opacity:1"
       d="m 124.01544,68.510042 -6.65065,4.759846 -6.43854,-4.759846 z"
       id="path26-2"
       sodipodi:nodetypes="cccc" />
    <path
       style="fill:#9bc6dd;fill-opacity:1;stroke:none;stroke-width:0.2;stroke-linecap:square;stroke-linejoin:round;stroke-dasharray:none;stroke-opacity:1"
       d="m 124.0154,76.778271 v -8.137264 l -6.65061,4.777709 -6.43839,-4.777709 v 8.137264 z"
       id="path26-9-5"
       sodipodi:nodetypes="cccccc" />
    <rect
       style="opacity:0.640884;fill:#f8d185;fill-opacity:1;stroke:none;stroke-width:0.2;stroke-linecap:square;stroke-linejoin:round;stroke-dasharray:none;stroke-opacity:1"
       id="rect27-86"
       width="3.6950011"
       height="1.5902536"
       x="131.53349"
       y="-19.359728"
       transform="rotate(42.592954)" />
    <rect
       style="opacity:0.640884;fill:#f8d185;fill-opacity:1;stroke:none;stroke-width:0.2;stroke-linecap:square;stroke-linejoin:round;stroke-dasharray:none;stroke-opacity:1"
       id="rect27-3-7"
       width="3.6950011"
       height="1.5902536"
       x="-46.100372"
       y="-139.70653"
       transform="rotate(139.38977)" />
    <rect
       style="opacity:0.640884;fill:#f8d185;fill-opacity:1;stroke:none;stroke-width:0.2;stroke-linecap:square;stroke-linejoin:round;stroke-dasharray:none;stroke-opacity:1"
       id="rect27-8-7"
       width="3.6950011"
       height="1.5902536"
       x="135.72441"
       y="-34.216244"
       transform="rotate(42.592954)" />
    <rect
       style="opacity:0.640884;fill:#f8d185;fill-opacity:1;stroke:none;stroke-width:0.2;stroke-linecap:square;stroke-linejoin:round;stroke-dasharray:none;stroke-opacity:1"
       id="rect27-6-2"
       width="3.6950011"
       height="1.5902536"
       x="-47.223812"
       y="-123.12843"
       transform="rotate(141.94784)" />
    <rect
       style="fill:#9e6621;fill-opacity:1;stroke:#000000;stroke-width:0.2;stroke-linecap:square;stroke-linejoin:round;stroke-dasharray:none;stroke-opacity:1"
       id="rect26-9"
       width="15.16041"
       height="9.7028103"
       x="88.110519"
       y="67.881973" />
    <path
       style="fill:#b27325;fill-opacity:1;stroke:none;stroke-width:0.2;stroke-linecap:square;stroke-linejoin:round;stroke-dasharray:none;stroke-opacity:1"
       d="m 103.21874,68.014053 -7.621531,-5.533407 -7.378461,5.533407 z"
       id="path26-7"
       sodipodi:nodetypes="cccc" />
    <rect
       style="opacity:0.640884;fill:#f8d185;fill-opacity:1;stroke:none;stroke-width:0.2;stroke-linecap:square;stroke-linejoin:round;stroke-dasharray:none;stroke-opacity:1"
       id="rect27-6-8"
       width="5.5293612"
       height="1.5902569"
       x="-98.141876"
       y="-63.979679"
       transform="matrix(-0.99999925,0.00122358,-0.00274002,-0.99999625,0,0)" />
    <rect
       style="opacity:1;fill:#fdedce;fill-opacity:1;stroke:#000000;stroke-width:0.1;stroke-linecap:square;stroke-linejoin:round;stroke-dasharray:none;stroke-opacity:1"
       id="rect28"
       width="13.113754"
       height="11.901104"
       x="89.209648"
       y="64.357124"
       ry="0" />
    <path
       id="path30"
       style="opacity:1;fill:none;fill-opacity:1;stroke:#000000;stroke-width:0.05;stroke-linecap:square;stroke-linejoin:round;stroke-dasharray:none;stroke-opacity:1"
       d="m 91.115884,72.495834 c 1.058333,0 1.124479,0.132291 1.554427,0.264583 0.429948,0.132292 -0.363802,-0.760677 0.694531,-0.562239 1.058334,0.198437 1.256771,0.496093 1.91823,0.496093 0.661458,0 2.05052,-0.628385 2.05052,-0.628385 0,0 -0.727604,-0.56224 -0.297656,-0.165365 0.429948,0.396875 3.406514,1.620573 3.009634,1.223698 -0.396873,-0.396875 -1.686717,-0.992187 -1.71979,-0.826823 -0.03307,0.165365 2.8112,0.198438 2.77812,0.06615 m -9.491922,-2.017452 c 1.190625,0 1.752865,0.926041 1.984375,0.06615 0.23151,-0.859896 -1.81901,-1.852084 -0.859896,-0.892969 0.959115,0.959114 2.017448,0.363802 2.513542,0.562239 0.496094,0.198438 1.355989,0.826823 1.223698,0.363802 -0.132292,-0.46302 -0.959115,-0.694531 -0.264584,-0.562239 0.694532,0.132292 2.480469,-0.231511 2.745052,-0.03307 0.264584,0.198437 -0.496093,-1.091406 -0.826822,-0.198438 -0.33073,0.892969 -0.06615,0.859896 1.455208,0.760678 m -8.929688,-1.852091 c 1.819011,-0.926041 1.455209,-2.282031 1.488282,-1.091406 0.03307,1.190625 0.496093,1.091406 0.727604,0.926042 0.23151,-0.165365 0.264583,-0.297657 0.661458,-0.297657 0.396875,0 0.959115,0 0.959115,-0.595312 0,-0.595313 0.297656,-0.79375 -0.03307,-0.595313 -0.330729,0.198438 -0.760677,-0.595312 -0.429948,0.496094 0.330729,1.091406 0.926042,1.058334 1.389062,0.926042 0.463021,-0.132292 0.463021,-0.09922 0.892969,-0.09922 0.429948,0 1.256771,-0.727604 0.595313,-1.157552 -0.661459,-0.429948 -2.811198,-0.165365 -1.389063,0.23151 1.422136,0.396875 2.811198,-0.628385 3.042708,0.463021 0.231511,1.091406 -0.132291,1.157552 0.429948,0.959115 0.56224,-0.198438 -1.785937,-0.826823 -1.322916,-0.826823 0.463021,0 2.645835,-0.23151 2.877345,-0.23151" />
    <path
       style="fill:#eeb46b;fill-opacity:1;stroke:none;stroke-width:0.2;stroke-linecap:square;stroke-linejoin:round;stroke-dasharray:none;stroke-opacity:1"
       d="M 103.2187,77.489455 V 68.164139 L 95.597209,73.6394 88.218916,68.164139 v 9.325316 z"
       id="path26-9-2"
       sodipodi:nodetypes="cccccc" />
    <rect
       style="opacity:0.640884;fill:#f8d185;fill-opacity:1;stroke:none;stroke-width:0.2;stroke-linecap:square;stroke-linejoin:round;stroke-dasharray:none;stroke-opacity:1"
       id="rect27-2"
       width="4.6853433"
       height="1.5902536"
       x="114.95251"
       y="-4.5472198"
       transform="rotate(42.592954)" />
    <rect
       style="opacity:0.640884;fill:#f8d185;fill-opacity:1;stroke:none;stroke-width:0.2;stroke-linecap:square;stroke-linejoin:round;stroke-dasharray:none;stroke-opacity:1"
       id="rect27-3-8"
       width="5.0190668"
       height="1.5902557"
       x="-30.305883"
       y="-125.82343"
       transform="rotate(139.38977)" />
    <rect
       style="mix-blend-mode:normal;fill:none;fill-opacity:1;stroke:#000000;stroke-width:0.5;stroke-linecap:square;stroke-linejoin:round;stroke-dasharray:none;stroke-opacity:1;filter:url(#filter46)"
       id="rect30-1"
       width="19.049999"
       height="27.384375"
       x="57.149998"
       y="30.427082" />
    <rect
       style="opacity:1;fill:url(#linearGradient31);stroke:#000000;stroke-width:0.2;stroke-linecap:square;stroke-linejoin:round;stroke-dasharray:none;stroke-opacity:1"
       id="rect30"
       width="19.049999"
       height="27.384375"
       x="57.149998"
       y="30.427082" />
    <path
       id="rect19-1"
       style="fill:#a9f1ff;fill-opacity:1;stroke:#000000;stroke-width:0.176389;stroke-linecap:square;stroke-linejoin:round"
       d="m 69.155017,31.727396 c 2.074839,0.112831 3.920322,0.09922 5.897017,0.06615 -0.01385,2.143465 0.250739,3.754254 0.710508,5.515625 -1.581976,0.243954 -3.930006,0.277027 -5.845797,0.482483 -0.774522,-1.975762 -0.725453,-4.018838 -0.761756,-6.064254 z"
       sodipodi:nodetypes="cccccc" />
    <path
       id="rect19-1-9"
       style="fill:#ffa177;fill-opacity:1;stroke:#000000;stroke-width:0.176389;stroke-linecap:square;stroke-linejoin:round"
       d="m 68.784966,40.568066 c 2.074839,0.112831 3.920322,0.09922 5.897017,0.06615 -0.01385,2.143465 0.250739,3.754254 0.710508,5.515625 -1.581976,0.243954 -3.930006,0.277027 -5.845797,0.482483 -0.774522,-1.975762 -0.725453,-4.018838 -0.761756,-6.064254 z"
       sodipodi:nodetypes="cccccc" />
    <path
       style="opacity:1;fill:#a9f1ff;fill-opacity:1;stroke:#000000;stroke-width:0.1;stroke-linecap:square;stroke-linejoin:round;stroke-dasharray:none;stroke-opacity:1"
       d="m 70.941405,33.238281 c 0.628386,-0.165364 0.198438,0.165365 0.628386,-0.23151 0.429948,-0.396875 0,0.198437 0.46302,0.198437 0.463021,0 1.35599,0.132292 1.389063,-0.06615 0.03307,-0.198437 -0.09922,-0.496093 -0.264583,-0.23151 -0.165365,0.264583 0.628385,0.297656 0.628385,0.297656"
       id="path32" />
    <path
       style="opacity:1;fill:#a9f1ff;fill-opacity:1;stroke:#000000;stroke-width:0.1;stroke-linecap:square;stroke-linejoin:round;stroke-dasharray:none;stroke-opacity:1"
       d="m 71.172916,35.487239 c 0.463021,-0.496094 0.661458,-0.429948 0.429948,-0.661458 -0.231511,-0.231511 -0.992188,-0.595313 -0.231511,-0.231511 0.760677,0.363802 -0.198437,-0.198437 0.595313,0.363802 0.79375,0.56224 0.661458,0.496094 1.058333,0.198438 0.396875,-0.297656 0.264583,-1.389063 0.330729,-0.628385 0.06615,0.760677 0.264584,0.859895 0.396875,0.892968"
       id="path33" />
    <path
       style="opacity:1;fill:#a9f1ff;fill-opacity:1;stroke:#000000;stroke-width:0.1;stroke-linecap:square;stroke-linejoin:round;stroke-dasharray:none;stroke-opacity:1"
       d="m 69.833463,33.139062 0.363802,-0.01654"
       id="path34" />
    <path
       style="opacity:1;fill:#a9f1ff;fill-opacity:1;stroke:#000000;stroke-width:0.1;stroke-linecap:square;stroke-linejoin:round;stroke-dasharray:none;stroke-opacity:1"
       d="m 69.982291,35.090364 0.429948,-0.06615"
       id="path35" />
    <path
       id="text41"
       style="font-size:0.521495px;font-family:'Curlz MT';-inkscape-font-specification:'Curlz MT';baseline-shift:baseline;display:inline;overflow:visible;opacity:1;vector-effect:none;fill:#720000;fill-opacity:0.709804;stroke:none;stroke-linecap:square;stroke-linejoin:round;enable-background:accumulate;stop-color:#000000;stop-opacity:1"
       d="m 44.170292,52.269113 c -0.01846,0.0061 -0.03583,0.01798 -0.04607,0.03508 -0.0095,0.01582 -0.01509,0.0357 -0.0085,0.05564 0.0054,0.01616 0.01801,0.0302 0.03178,0.0379 0.0018,9.84e-4 0.0039,-5.04e-4 0.0059,2.64e-4 -0.0045,0.0029 -0.0038,0.0044 -0.0091,0.0074 -0.03196,0.01838 -0.06604,0.03504 -0.10218,0.05146 a 0.02675077,0.02336849 71.672444 0 0 -0.01474,-0.0039 l -0.01147,0.006 a 0.02675077,0.02336849 71.672444 0 0 -0.0041,0.01678 c -8.72e-4,-0.0038 0.0014,-0.0073 1.18e-4,-0.01109 -0.0069,-0.02075 -0.02323,-0.03865 -0.042,-0.04552 -0.01818,-0.0068 -0.03779,-0.0073 -0.05617,-0.0012 -0.02718,0.009 -0.04811,0.02841 -0.06292,0.05387 -0.01486,0.02579 -0.01943,0.05744 -0.0097,0.08686 0.0068,0.02054 0.01796,0.03831 0.03399,0.05038 0.01416,0.0104 0.03119,0.01776 0.04757,0.02166 0.0098,0.0021 0.02369,0.0038 0.03645,0.0055 -0.01761,0.0084 -0.03375,0.02257 -0.04344,0.04301 -0.01118,0.02389 -0.01384,0.05112 -0.0054,0.07663 0.0095,0.02873 0.02867,0.05293 0.05336,0.06818 0.02488,0.01519 0.05375,0.01961 0.07875,0.01133 0.03265,-0.01081 0.05608,-0.03723 0.07154,-0.07433 0.01536,-0.03686 0.01939,-0.07496 0.0077,-0.110399 -0.0063,-0.0189 -0.01732,-0.0367 -0.03161,-0.04896 -0.01322,-0.01097 -0.02922,-0.01933 -0.04476,-0.0248 -0.01397,-0.005 -0.03379,-0.01036 -0.06142,-0.01707 0.01484,-0.007 0.02759,-0.01967 0.03196,-0.03701 0.0011,-0.0041 -9e-4,-0.0088 -5.25e-4,-0.01304 0.0065,0.01282 0.01197,0.02724 0.0205,0.05044 a 0.02675077,0.02336849 71.672444 0 0 0.03389,0.01519 l 0.0097,-0.0054 a 0.02675077,0.02336849 71.672444 0 0 0.0116,-0.03466 l -0.01035,-0.02519 c 0.0156,-0.0075 0.03063,-0.01204 0.042,-0.01834 0.01259,0.02339 0.02642,0.05208 0.0463,0.09913 0.02023,0.04804 0.03226,0.08213 0.04333,0.113325 l -0.0052,0.0017 a 0.02675077,0.02336849 71.672444 0 0 -0.01226,0.03268 l 0.0046,0.01388 a 0.02675077,0.02336849 71.672444 0 0 0.03454,0.01718 c 0.01243,-0.0077 0.02206,-0.01363 0.02748,-0.01574 0.02346,-0.0086 0.04641,-0.0179 0.06733,-0.02894 a 0.02675077,0.02336849 71.672444 0 0 0.01052,-0.03211 l -0.0053,-0.01587 a 0.02675077,0.02336849 71.672444 0 0 -0.03908,-0.01347 c -0.0051,0.0049 -0.0173,0.0085 -0.02641,0.01317 -0.01752,-0.05926 -0.03387,-0.11371 -0.04389,-0.143958 -0.0076,-0.0229 -0.0183,-0.05206 -0.0294,-0.08272 0.02486,-0.01308 0.04649,-0.02499 0.05994,-0.03967 a 0.02675077,0.02336849 71.672444 0 0 0.0025,0.0014 l 0.0034,-0.0011 c 0.02097,0.03563 0.04163,0.07033 0.05694,0.102214 0.01577,0.03233 0.03818,0.08262 0.06118,0.138232 l -0.0034,0.0011 a 0.02675077,0.02336849 71.672444 0 0 -0.01226,0.03268 l 0.0046,0.01389 a 0.02675077,0.02336849 71.672444 0 0 0.03388,0.0152 c 0.01433,-0.0083 0.02523,-0.01278 0.0316,-0.01489 0.01099,-0.0036 0.02881,-0.0083 0.04985,-0.01209 0.02044,-0.0035 0.03399,-0.0068 0.04291,-0.0098 0.01408,-0.0047 0.02493,-0.0079 0.034,-0.01347 0.0109,-0.0065 0.01884,-0.01614 0.02528,-0.02819 0.0046,-0.0084 0.007,-0.01962 0.0094,-0.02955 a 0.02675077,0.02336849 71.672444 0 0 0.0328,0.01775 c 0.02159,-0.01094 0.03702,-0.01669 0.042,-0.01834 0.01853,-0.0061 0.03585,-0.01546 0.05284,-0.02625 a 0.02675077,0.02336849 71.672444 0 0 0.0088,-0.03149 l -0.0046,-0.01389 a 0.02675077,0.02336849 71.672444 0 0 -0.03561,-0.01462 c -0.0062,0.0049 -0.01055,0.0064 -0.016,0.0097 -0.0092,-0.02644 -0.02102,-0.05742 -0.02283,-0.06288 -0.0032,-0.0097 -0.0042,-0.01259 -0.0072,-0.02181 a 0.02675077,0.02336849 71.672444 0 0 0.0065,0.0023 c 0.02412,-0.008 0.04073,-0.0068 0.05138,-0.0016 0.01065,0.0051 0.01816,0.01418 0.02527,0.03565 0.0062,0.01869 0.0115,0.03791 0.01498,0.05667 0.0039,0.02059 0.006,0.03575 0.0099,0.04735 0.007,0.02108 0.02202,0.04039 0.03985,0.05064 0.01809,0.01046 0.03855,0.01144 0.05748,0.0052 0.01986,-0.0066 0.03642,-0.02018 0.04649,-0.03961 0.0097,-0.01822 0.01342,-0.04074 0.0065,-0.06159 -0.0059,-0.01791 -0.02023,-0.03215 -0.03591,-0.03873 -0.01578,-0.0068 -0.03284,-0.0067 -0.04858,-0.0015 -0.0065,0.0022 -0.0098,0.0087 -0.01471,0.01362 -1.1e-5,-9.16e-4 -6.52e-4,-10e-4 -6.6e-4,-0.002 -1.65e-4,-0.03007 -0.0015,-0.0509 -0.0078,-0.07006 -0.0095,-0.02878 -0.02996,-0.05228 -0.05485,-0.06108 -0.0079,-0.0028 -0.0182,0.0011 -0.02686,1.55e-4 0.0065,-0.01049 0.01653,-0.01945 0.0205,-0.031 0.0094,-0.02699 0.01242,-0.05541 0.0041,-0.0806 -0.0092,-0.02765 -0.03282,-0.04439 -0.06047,-0.05482 -0.02882,-0.011 -0.0593,-0.01117 -0.09064,-7.86e-4 -0.02467,0.0082 -0.05776,0.02366 -0.101762,0.04692 a 0.02675077,0.02336849 71.672444 0 0 -0.01052,0.03211 l 0.0039,0.0119 a 0.02675077,0.02336849 71.672444 0 0 0.03214,0.01577 l 0.0097,-0.0054 c 0.02264,0.0585 0.05596,0.139051 0.0988,0.24024 l -0.01732,0.0057 a 0.02675077,0.02336849 71.672444 0 0 -0.0054,0.01284 c -1.71e-4,-0.0097 0.0014,-0.01885 -0.0016,-0.02808 -0.006,-0.01823 -0.01982,-0.0344 -0.03657,-0.04072 -0.01597,-0.0064 -0.03168,-0.0049 -0.04792,4.64e-4 -0.01592,0.0053 -0.02366,0.01732 -0.02982,0.0319 -0.0065,0.0159 -0.0091,0.03638 -0.0033,0.05392 0.0032,0.0096 0.01037,0.01604 0.01728,0.0229 l -0.06024,0.01553 c -0.0039,-0.01211 -0.0061,-0.0244 -0.01003,-0.03631 -0.0058,-0.01759 -0.01145,-0.02947 -0.01626,-0.04305 0.03013,-0.01198 0.05811,-0.02578 0.08271,-0.04061 a 0.02675077,0.02336849 71.672444 0 0 0.01118,-0.03012 l -0.0072,-0.02181 a 0.02675077,0.02336849 71.672444 0 0 -0.03734,-0.01405 c -0.01531,0.01287 -0.04384,0.0266 -0.07338,0.03972 -0.0093,-0.02602 -0.02169,-0.06294 -0.04022,-0.109955 l 0.0576,-0.02351 0.0081,0.03036 a 0.02675077,0.02336849 71.672444 0 0 0.03172,0.02031 l 0.01213,-0.004 a 0.02675077,0.02336849 71.672444 0 0 0.0116,-0.03466 c -0.0083,-0.02145 -0.01413,-0.04902 -0.01936,-0.08165 a 0.02675077,0.02336849 71.672444 0 0 -0.03585,-0.02115 l -0.04804,0.02912 c -0.02412,0.01463 -0.05652,0.02663 -0.08681,0.0398 -7.16e-4,-0.0031 0.0018,-0.006 8.08e-4,-0.009 -0.0075,-0.02264 -0.027,-0.03827 -0.04786,-0.04578 -0.01985,-0.0073 -0.03961,-0.0089 -0.05855,-0.0026 z m 0.942687,-0.312267 c -0.01846,0.0061 -0.03409,0.0174 -0.04434,0.0345 -0.0095,0.01583 -0.01509,0.03569 -0.0085,0.05564 0.0054,0.01616 0.01801,0.0302 0.03178,0.0379 0.0018,9.84e-4 0.0039,-5.05e-4 0.0059,2.64e-4 -0.0046,0.0029 -0.0038,0.0044 -0.0091,0.0074 -0.03248,0.01866 -0.06713,0.03538 -0.103914,0.05203 a 0.02675077,0.02336849 71.672444 0 0 -0.013,-0.0044 l -0.01147,0.006 a 0.02675077,0.02336849 71.672444 0 0 -0.003,0.0142 c -7.34e-4,-0.0029 1.37e-4,-0.0056 -8.06e-4,-0.0085 -0.0069,-0.02075 -0.02323,-0.03865 -0.042,-0.04552 -0.01818,-0.0068 -0.03779,-0.0073 -0.05617,-0.0012 -0.02718,0.009 -0.04984,0.02898 -0.06465,0.05444 -0.01486,0.0258 -0.0177,0.05686 -0.0079,0.08629 0.0068,0.02054 0.01796,0.03831 0.03399,0.05038 0.01416,0.0104 0.02946,0.01834 0.04583,0.02224 a 0.02675077,0.02336849 71.672444 0 0 0.0018,-5.97e-4 c 0.0096,0.0021 0.02221,0.0043 0.03471,0.0061 -0.01751,0.0084 -0.03205,0.02207 -0.04171,0.04243 -0.01118,0.02389 -0.01384,0.05112 -0.0054,0.07663 0.0095,0.02872 0.02867,0.05293 0.05336,0.06818 0.02488,0.01519 0.05203,0.02018 0.07702,0.0119 0.03265,-0.01081 0.05781,-0.0378 0.07327,-0.0749 0.01536,-0.03686 0.01939,-0.07496 0.0077,-0.110398 -0.0063,-0.01891 -0.01893,-0.03615 -0.03334,-0.04839 l -6.6e-4,-0.002 c -0.01287,-0.01054 -0.02728,-0.01807 -0.04236,-0.02339 -0.01398,-0.005 -0.03547,-0.0098 -0.06315,-0.0165 0.01556,-0.0067 0.0292,-0.01957 0.0337,-0.03758 6.69e-4,-0.0027 -0.0014,-0.0058 -8.06e-4,-0.0085 0.0062,0.01262 0.01304,0.02443 0.02099,0.04588 a 0.02675077,0.02336849 71.672444 0 0 0.03214,0.01577 l 0.01147,-0.006 a 0.02675077,0.02336849 71.672444 0 0 0.0099,-0.03408 l -0.0097,-0.02321 c 0.01679,-0.0082 0.03041,-0.01618 0.04244,-0.0228 0.01268,0.02334 0.02677,0.05315 0.04696,0.101117 0.02023,0.04805 0.03226,0.08213 0.04333,0.113325 l -0.0069,0.0023 a 0.02675077,0.02336849 71.672444 0 0 -0.01226,0.03267 l 0.0046,0.01389 a 0.02675077,0.02336849 71.672444 0 0 0.03627,0.01661 c 0.01243,-0.0077 0.02206,-0.01363 0.02748,-0.01574 0.02346,-0.0086 0.04467,-0.01732 0.0656,-0.02837 a 0.02675077,0.02336849 71.672444 0 0 0.01052,-0.03211 l -0.0053,-0.01587 a 0.02675077,0.02336849 71.672444 0 0 -0.03734,-0.01405 c -0.005,0.0048 -0.01772,0.0086 -0.02641,0.01317 -0.01751,-0.05923 -0.03388,-0.113721 -0.04389,-0.143958 -0.0076,-0.0229 -0.0183,-0.05206 -0.0294,-0.08272 0.02271,-0.01216 0.0418,-0.02455 0.05474,-0.03795 6.95e-4,-7.19e-4 0.0028,-4.25e-4 0.0034,-0.0011 l 0.02293,-0.01202 c 0.01333,0.01479 0.02835,0.02975 0.04134,0.04354 0.01474,0.01557 0.03513,0.04429 0.06273,0.08488 0.02805,0.04087 0.04813,0.07051 0.06059,0.09 0.01209,0.019 0.02266,0.03757 0.02879,0.0521 a 0.02675077,0.02336849 71.672444 0 0 0.02975,0.01435 l 0.0087,-0.0029 a 0.02675077,0.02336849 71.672444 0 0 0.01402,-0.0157 c 0.009,-0.03907 -4.65e-4,-0.07054 -3.48e-4,-0.10555 -2.4e-5,-0.003 9.29e-4,-0.0061 8.08e-4,-0.009 -6.4e-5,-0.0015 -0.0012,-0.0025 -0.0013,-0.004 -8.58e-4,-0.02962 0.0087,-0.06404 7.86e-4,-0.09052 -0.0027,-0.0089 -0.0071,-0.02984 -0.01449,-0.06124 -0.0033,-0.0138 -0.0028,-0.01944 -0.004,-0.0295 0.0016,0.0017 0.0033,0.0017 0.0047,0.0029 0.0051,0.0038 0.0094,0.0069 0.01434,0.0085 0.0095,0.0028 0.0207,0.0019 0.03034,-0.0013 0.01407,-0.0047 0.02514,-0.01475 0.03287,-0.0285 -0.0037,0.03409 -0.0097,0.06929 0.0014,0.102995 0.0164,0.0495 0.04849,0.08762 0.09297,0.112293 0.04469,0.02464 0.09247,0.0288 0.139043,0.01338 0.04271,-0.01415 0.07447,-0.04973 0.09161,-0.10079 0.01697,-0.0509 0.01776,-0.103114 7.83e-4,-0.154354 -0.0142,-0.04288 -0.04233,-0.07799 -0.08209,-0.102687 -0.04004,-0.02486 -0.08188,-0.03231 -0.119981,-0.01969 -0.0066,0.0022 -0.0088,0.01038 -0.01471,0.01362 l -0.006,-0.0067 a 0.02675077,0.02336849 71.672444 0 0 -0.03126,-0.0073 c -0.03089,0.02094 -0.05066,0.05547 -0.06497,0.09417 -0.0067,-0.01858 -0.02075,-0.03464 -0.03723,-0.0427 -0.01682,-0.0087 -0.03554,-0.008 -0.05269,-0.0024 -0.02139,0.0071 -0.03826,0.02173 -0.0493,0.04275 -0.01063,0.01988 -0.0165,0.04258 -0.01626,0.06702 4.12e-4,0.02796 0.01119,0.06558 0.02837,0.120481 0.0063,0.02043 0.0095,0.04511 0.01087,0.07345 -0.05039,-0.08406 -0.09484,-0.15373 -0.123795,-0.187934 l 0.02014,-0.0089 a 0.02675077,0.02336849 71.672444 0 0 0.01226,-0.03268 c -2.12e-4,-6.42e-4 -0.0011,-0.0043 -0.002,-0.006 -8.54e-4,-0.0017 -0.0027,-0.0038 -0.0038,-0.0054 -0.0018,-0.0031 -0.0044,-0.0055 -0.0067,-0.0088 a 0.02675077,0.02336849 71.672444 0 0 -0.03126,-0.0073 c -0.01335,0.0092 -0.0433,0.02214 -0.06776,0.03348 -7.16e-4,-0.0031 0.0018,-0.006 8.07e-4,-0.009 -0.0075,-0.02264 -0.02528,-0.03883 -0.04613,-0.04636 -0.01985,-0.0073 -0.04134,-0.0083 -0.06029,-0.002 z m -1.813018,0.668807 c -0.01316,0.0096 -0.02471,0.01756 -0.0331,0.02201 -0.0071,0.0037 -0.02564,0.01113 -0.05306,0.01979 a 0.02675077,0.02336849 71.672444 0 0 -0.01464,0.03127 l 0.0013,0.004 a 0.02675077,0.02336849 71.672444 0 0 -0.01333,-0.01099 c -0.01741,0.0048 -0.03785,0.0097 -0.06437,0.01469 -0.02645,0.0049 -0.04726,0.0064 -0.04594,0.0065 a 0.02675077,0.02336849 71.672444 0 0 -0.02181,0.02704 l 0.0015,0.01056 a 0.02675077,0.02336849 71.672444 0 0 0.02784,0.026 c 0.0022,-3.38e-4 0.0015,-8.44e-4 0.0034,-0.0011 -3.55e-4,0.01578 3.55e-4,0.0316 -0.0011,0.04881 -0.0015,0.0181 -0.0038,0.0507 -0.0047,0.07862 -0.03929,-0.03551 -0.07361,-0.06814 -0.0953,-0.09611 a 0.02675077,0.02336849 71.672444 0 0 0.0053,-0.03039 l -0.0051,-0.0094 a 0.02675077,0.02336849 71.672444 0 0 -0.03191,-0.0092 c -0.0056,0.0032 -0.01909,0.01117 -0.03961,0.01976 -0.02074,0.0083 -0.03577,0.01406 -0.04612,0.01749 -0.01854,0.0061 -0.03456,0.02072 -0.04237,0.04045 -0.0076,0.0189 -0.0097,0.04033 -0.0031,0.06045 0.007,0.02125 0.02101,0.04022 0.03812,0.05121 0.01568,0.0098 0.03428,0.01285 0.05055,0.0075 0.01318,-0.0044 0.02206,-0.01573 0.02701,-0.02876 5.1e-4,-0.0014 -5.6e-5,-0.0031 4.83e-4,-0.0046 0.02262,0.06194 0.0442,0.12517 0.06787,0.17564 -0.0068,0.0016 -0.0098,0.0048 -0.01906,0.0063 a 0.02675077,0.02336849 71.672444 0 0 -0.01703,0.02985 l 0.0028,0.01449 a 0.02675077,0.02336849 71.672444 0 0 0.02587,0.02005 c 1.23e-4,-3e-6 0.0034,9.86e-4 0.0041,8.61e-4 0,0 0.0018,-5.97e-4 0.0018,-5.97e-4 0.0015,-3.57e-4 0.0047,-0.0017 0.0069,-0.0023 0.0045,-0.0012 0.009,-0.0034 0.01732,-0.0057 0.01659,-0.0047 0.04207,-0.01077 0.0741,-0.02012 a 0.02675077,0.02336849 71.672444 0 0 0.0153,-0.02928 l -0.0015,-0.01055 a 0.02675077,0.02336849 71.672444 0 0 -0.02892,-0.02345 c -0.01019,0.0021 -0.01682,0.004 -0.02491,0.006 -0.0199,-0.048 -0.03645,-0.09446 -0.05188,-0.139112 0.02932,0.03235 0.05622,0.06346 0.07749,0.0888 a 0.02675077,0.02336849 71.672444 0 0 0.0254,0.007 l 0.01387,-0.0046 a 0.02675077,0.02336849 71.672444 0 0 0.01423,-0.02673 c -0.0017,-0.01431 0.0014,-0.05758 0.0017,-0.08201 l 0.01906,0.05753 c 0.0085,0.02581 0.01516,0.04607 0.02283,0.06288 a 0.02675077,0.02336849 71.672444 0 0 6.6e-4,0.002 c 0.0086,0.01863 0.02134,0.03356 0.03615,0.04526 0.01807,0.01421 0.04072,0.01732 0.06118,0.01055 0.01863,-0.0062 0.02839,-0.02481 0.03519,-0.04468 0.0031,-0.0089 -1.63e-4,-0.01767 8.47e-4,-0.0267 l 0.0033,0.01 a 0.02675077,0.02336849 71.672444 0 0 0.03279,0.01775 c 0.02159,-0.01094 0.03702,-0.01669 0.042,-0.01834 0.01747,-0.0058 0.03501,-0.01119 0.05092,-0.01465 a 0.02675077,0.02336849 71.672444 0 0 0.01141,-0.02359 c 0.02059,0.0068 0.04259,0.0101 0.06268,0.0034 0.02268,-0.0075 0.03935,-0.02831 0.04363,-0.05408 0.0038,-0.02194 0.0035,-0.04587 -0.002,-0.06979 -0.0049,-0.02254 -0.01294,-0.0505 -0.02484,-0.08642 -0.0041,-0.01249 -0.0087,-0.02132 -0.01297,-0.03312 0.04875,0.04675 0.09354,0.0854 0.166216,0.165075 a 0.02675077,0.02336849 71.672444 0 0 0.02885,0.0059 l 0.0069,-0.0023 a 0.02675077,0.02336849 71.672444 0 0 0.0092,-0.03607 c -0.0216,-0.04358 -0.04441,-0.09925 -0.06625,-0.165171 -0.01805,-0.05448 -0.02028,-0.08159 -0.02246,-0.102632 0.01078,0.003 0.02218,0.0037 0.03276,2e-4 0.01662,-0.0055 0.03015,-0.01557 0.03979,-0.0308 0.0049,-0.0078 0.0044,-0.01864 0.006,-0.0284 0.0345,0.100019 0.06838,0.187348 0.101921,0.261221 l -0.0156,0.0052 a 0.02675077,0.02336849 71.672444 0 0 -0.01399,0.03324 l 0.0046,0.01389 a 0.02675077,0.02336849 71.672444 0 0 0.03454,0.01718 c 0.02159,-0.01094 0.03702,-0.01669 0.042,-0.01834 0.01747,-0.0058 0.03328,-0.01062 0.04919,-0.01408 a 0.02675077,0.02336849 71.672444 0 0 0.01637,-0.03184 l -0.0046,-0.01389 -0.03185,0.0083 0.0065,-0.01535 c -0.0047,10e-4 -0.0091,0.0034 -0.01387,0.0046 l 0.0075,-0.01791 c -0.0089,0.0031 -0.01427,0.0068 -0.02187,0.0095 -0.01061,-0.02884 -0.02293,-0.05777 -0.03233,-0.08615 -0.01785,-0.05389 -0.0352,-0.119951 -0.05435,-0.193327 l 0.01147,-0.006 a 0.02675077,0.02336849 71.672444 0 0 0.0075,-0.0355 l -0.0064,-0.01329 a 0.02675077,0.02336849 71.672444 0 0 -0.0343,-0.01065 c -0.01316,0.0096 -0.02471,0.01756 -0.0331,0.022 -0.0071,0.0037 -0.02564,0.01113 -0.05306,0.01979 a 0.02675077,0.02336849 71.672444 0 0 -0.0021,0.0051 c -0.01365,-0.0036 -0.02674,-0.0044 -0.04034,1.52e-4 -0.02281,0.0076 -0.04109,0.02078 -0.05408,0.03992 -0.01291,0.01902 -0.01942,0.04252 -0.01626,0.06702 0.003,0.02189 0.01071,0.04981 0.02303,0.08702 10e-4,0.003 0.0083,0.02547 0.01051,0.03174 -0.04453,-0.04752 -0.08953,-0.09462 -0.13102,-0.145917 a 0.02675077,0.02336849 71.672444 0 0 -0.02951,-0.0078 c -0.02206,0.01194 -0.05127,0.02573 -0.08923,0.0383 a 0.02675077,0.02336849 71.672444 0 0 -0.01464,0.03127 l 0.0039,0.0119 a 0.02675077,0.02336849 71.672444 0 0 0.03107,0.01833 l 0.03919,-0.01519 c 0.0059,0.0119 0.01285,0.02386 0.02467,0.05126 0.0162,0.03714 0.0287,0.06916 0.03808,0.09746 0.0058,0.01745 0.0052,0.02705 0.0079,0.0414 -0.0039,-0.003 -0.0068,-0.0084 -0.01087,-0.0096 -0.01052,-0.0032 -0.02297,-0.0034 -0.03275,-2.01e-4 -0.01821,0.006 -0.03188,0.01899 -0.0413,0.03789 -0.0094,0.01876 -0.01345,0.04064 -0.0065,0.06159 0.0024,0.0071 0.01063,0.0089 0.01465,0.01496 -0.0051,0.0018 -0.0086,0.0049 -0.01321,0.0066 -0.0106,-0.02883 -0.02132,-0.05831 -0.03072,-0.08669 -0.01785,-0.05389 -0.0352,-0.119951 -0.05435,-0.193328 l 0.01147,-0.006 a 0.02675077,0.02336849 71.672444 0 0 0.0075,-0.0355 l -0.0064,-0.01329 a 0.02675077,0.02336849 71.672444 0 0 -0.0343,-0.01064 z m -0.08014,0.09479 a 0.02675077,0.02336849 71.672444 0 0 0.01499,0.01044 l 0.01213,-0.004 c 0.03481,0.100954 0.06875,0.188795 0.102578,0.263205 l -0.01732,0.0057 a 0.02675077,0.02336849 71.672444 0 0 -0.01118,0.03012 c 2.7e-4,-0.009 0.0038,-0.0178 8.47e-4,-0.0267 -0.0051,-0.01526 -0.01295,-0.02923 -0.02593,-0.03765 -0.01183,-0.008 -0.02742,-0.01073 -0.04057,-0.0064 -0.0086,0.0029 -0.01512,0.0093 -0.02164,0.01591 -0.0094,-0.0321 -0.01915,-0.0613 -0.03223,-0.1148 -0.0092,-0.03728 -0.01656,-0.0675 -0.02132,-0.08759 -8.47e-4,-0.0036 -1.79e-4,-0.0053 -8.06e-4,-0.0085 0.009,-0.0019 0.01965,-0.0043 0.02666,-0.0066 a 0.02675077,0.02336849 71.672444 0 0 0.01423,-0.02673 z m 0.245658,-0.07695 c 0.0023,0.0028 0.0044,0.006 0.0067,0.0088 a 0.02675077,0.02336849 71.672444 0 0 -0.0018,5.98e-4 c -0.0014,-0.0028 -0.0038,-0.0069 -0.0051,-0.0094 z m 1.130715,-0.365808 c 0.01382,-0.0046 0.0264,-0.0039 0.041,0.0018 a 0.02675077,0.02336849 71.672444 0 0 0.0018,-5.97e-4 c 0.01321,0.0051 0.01734,0.01169 0.02133,0.02375 0.0064,0.01937 0.0073,0.0339 0.0023,0.04766 -0.0045,0.01266 -0.01665,0.02497 -0.0337,0.03758 -0.01236,-0.03979 -0.02558,-0.08327 -0.03272,-0.110235 z m -1.684528,0.569054 c 9.75e-4,0.0029 0.0016,0.0049 0.0026,0.0079 -0.0013,-6.35e-4 -0.0018,-0.0029 -0.0031,-0.0034 -0.0018,-7.62e-4 -0.0039,3.5e-4 -0.0059,-2.64e-4 0.0022,-8.78e-4 0.0036,-0.0033 0.0063,-0.0043 z m 0.22379,-0.06749 c 2.28e-4,9.65e-4 0.0011,0.0029 0.0013,0.004 a 0.02675077,0.02336849 71.672444 0 0 -0.0018,5.97e-4 c 5.1e-5,-0.0015 3.53e-4,-0.0031 4.83e-4,-0.0046 z m 0.889446,-0.281421 a 0.02675077,0.02336849 71.672444 0 0 0.0047,0.0029 0.02675077,0.02336849 71.672444 0 0 -4.83e-4,0.0046 z m 0.942687,-0.312267 a 0.02675077,0.02336849 71.672444 0 0 0.0065,0.0023 0.02675077,0.02336849 71.672444 0 0 -0.0014,0.0071 z m 0.714608,-0.234503 c 0.01603,-0.0018 0.03146,-7.28e-4 0.04839,0.01258 0.02193,0.01724 0.03906,0.04245 0.05144,0.07982 0.01246,0.03762 0.01482,0.07209 0.0079,0.105232 -0.0067,0.03222 -0.01878,0.04585 -0.04015,0.05293 -0.02985,0.0099 -0.05542,0.0069 -0.08288,-0.01217 -0.02783,-0.01935 -0.04809,-0.04651 -0.061,-0.08546 -0.0091,-0.02761 -0.0081,-0.0507 -0.0074,-0.0746 0.0061,0.01013 0.01165,0.02149 0.02091,0.0283 0.01485,0.01075 0.0333,0.01539 0.04947,0.01003 0.01527,-0.0051 0.02669,-0.01916 0.03262,-0.03502 0.0066,-0.01713 0.007,-0.03677 8.97e-4,-0.05533 -0.004,-0.01201 -0.01193,-0.01979 -0.02025,-0.02632 z m -1.648761,0.700251 c 0.006,0.0022 0.01279,0.0037 0.01781,0.0073 0.0055,0.0038 0.0082,0.0072 0.01114,0.01613 0.0083,0.02505 0.007,0.04401 -6.63e-4,0.06186 -0.008,0.01847 -0.01804,0.03019 -0.0361,0.03617 -0.0047,0.0015 -0.0085,-0.0018 -0.01238,-0.0025 0.01558,-0.0064 0.03075,-0.0183 0.03848,-0.03476 0.0087,-0.01801 0.0097,-0.04026 0.0031,-0.06045 -0.0036,-0.01076 -0.01355,-0.01577 -0.02133,-0.02375 z m 0.944421,-0.312841 c 0.0058,0.0022 0.01125,0.0044 0.01608,0.0079 0.0055,0.0038 0.0082,0.0072 0.01113,0.01613 0.0083,0.02505 0.0088,0.04342 0.0011,0.06128 -0.008,0.01847 -0.01804,0.03019 -0.0361,0.03617 -0.0043,0.0014 -0.0088,-0.002 -0.01238,-0.0025 0.01554,-0.0064 0.02901,-0.01783 0.03675,-0.03419 0.0087,-0.018 0.01147,-0.04083 0.0048,-0.06102 -0.0035,-0.01059 -0.01367,-0.01583 -0.02133,-0.02375 z m -1.707856,0.666987 c 0,0 0.0025,0.0014 0.0025,0.0014 6.3e-5,10e-4 7.4e-4,0.0011 6.6e-4,0.002 a 0.02675077,0.02336849 71.672444 0 0 -0.0059,-2.64e-4 c 9.97e-4,-8.06e-4 0.0016,-0.0027 0.0028,-0.0031 z M 43.490955,52.941 c -0.0018,9.96e-4 -0.0016,0.005 -0.0039,0.0057 -7.69e-4,2.54e-4 -0.0019,-0.0015 -0.0025,-0.0014 0.0024,-0.001 0.0041,-0.0029 0.0063,-0.0043 z m -0.06497,0.03026 c 0.0014,0.0017 0.0022,0.0038 0.0038,0.0054 -0.0022,5.24e-4 -0.0047,0.0017 -0.0069,0.0023 z m 0.0085,0.0082 c 0.0023,0.0022 0.0036,0.0049 0.006,0.0067 l -0.01213,0.004 z m 1.89928,-0.07811 -0.002,0.05002 -0.0208,0.552125 -0.06355,-0.03656 a 0.050005,0.050005 0 0 0 -0.03643,-0.0044 c 0,0 -0.09938,0.02144 -0.200203,0.0478 -0.0504,0.01322 -0.10022,0.02762 -0.14028,0.04236 -0.02002,0.0074 -0.03833,0.01491 -0.05376,0.02402 -0.0078,0.0046 -0.01497,0.0096 -0.02287,0.0179 -0.004,0.0042 -0.0075,0.0087 -0.01115,0.01604 -0.0018,0.0037 -0.0041,0.01106 -0.0043,0.01176 -1.65e-4,6.83e-4 -0.0025,0.01662 -0.0025,0.01729 l 0.0018,0.04879 0.101303,-0.0048 -5.79e-4,-0.02656 c 0.0071,-0.0034 0.01507,-0.0066 0.02719,-0.01111 0.03401,-0.01264 0.08223,-0.02653 0.13101,-0.03929 0.08714,-0.02276 0.157694,-0.03792 0.175487,-0.04166 l 0.121544,0.06878 a 0.050005,0.050005 0 0 0 0.07419,-0.0431 l 0.02404,-0.635499 0.002,-0.05002 z m -1.526754,0.639478 -0.07486,0.06594 0.03143,0.03896 0.24899,0.285813 a 0.050005,0.050005 0 0 0 0.03888,0.018 c 0,0 0.03801,-2.45e-4 0.08155,-0.01467 0.04355,-0.01443 0.101335,-0.05017 0.115102,-0.118368 0.0045,-0.02207 0.04122,-0.06839 0.0811,-0.102996 0.02567,-0.02227 0.03689,-0.02764 0.05134,-0.03758 l 0.329327,0.261258 0.03946,0.03219 0.06252,-0.07832 -0.03946,-0.03219 -0.360162,-0.286021 a 0.050005,0.050005 0 0 0 -0.05867,-0.0032 c 0,0 -0.04284,0.02642 -0.08906,0.06654 -0.04623,0.04011 -0.10098,0.09127 -0.115182,0.161604 -0.0049,0.02422 -0.02182,0.03398 -0.04763,0.04253 -0.01581,0.0052 -0.02114,0.0052 -0.03088,0.0061 l -0.230495,-0.267249 z m -0.06033,-2.411971 a 0.050005,0.050005 0 0 0 -0.04272,0.05736 l 0.06902,0.413326 0.0086,0.05066 0.09886,-0.01835 -0.008,-0.04881 -0.05985,-0.36081 0.477536,-0.05531 -0.168568,0.304795 a 0.050005,0.050005 0 0 0 0.05112,0.0736 l 0.867373,-0.11449 0.04944,-0.0061 -0.01217,-0.09885 -0.04944,0.0061 -0.770996,0.101081 0.168566,-0.304795 a 0.050005,0.050005 0 0 0 -0.04928,-0.07421 z m -0.332396,0.387868 a 0.050005,0.050005 0 0 0 -0.07728,0.04 c 0,0 -0.0014,0.06998 -0.0095,0.132773 -0.0041,0.03139 -0.01138,0.06031 -0.01681,0.07346 -0.0027,0.0065 -0.0056,0.0088 0.0012,0.0037 0.0068,-0.0051 0.02886,-0.006 0.03397,-0.003 -0.05426,-0.03137 -0.135407,-0.0089 -0.170572,0.06272 -0.03518,0.07159 -0.03668,0.180523 0.01293,0.349605 l 0.01346,0.04698 0.09578,-0.02762 -0.01346,-0.04698 c -0.04594,-0.156484 -0.0362,-0.244121 -0.01986,-0.277354 0.01633,-0.03323 0.02548,-0.0248 0.03215,-0.02097 0.02036,0.01178 0.05602,0.0097 0.07475,-0.0042 0.01872,-0.01389 0.02656,-0.02864 0.03281,-0.04379 0.0125,-0.03031 0.01782,-0.06463 0.02242,-0.100013 0.0034,-0.02591 0.0017,-0.0297 0.0032,-0.05249 l 0.207261,0.14121 0.04195,0.02725 0.05513,-0.08205 -0.0401,-0.02787 z m 0.426986,-0.640884 c -0.728477,0.24131 -1.191949,0.917375 -1.196962,1.644775 l 0.0024,0.09933 c 0.0077,0.153413 0.03609,0.308403 0.08671,0.461236 0.04835,0.145948 0.114203,0.281124 0.194397,0.404218 l 0.05493,0.07991 c 0.435672,0.593377 1.219863,0.867576 1.956029,0.62372 0.736168,-0.243858 1.201127,-0.93184 1.196397,-1.667967 l -0.0032,-0.09705 c -0.0092,-0.146621 -0.03702,-0.294388 -0.08536,-0.440336 -0.05063,-0.152832 -0.120416,-0.294094 -0.205791,-0.421791 l -0.05783,-0.08097 c -0.438279,-0.580559 -1.213245,-0.846389 -1.941722,-0.60508 z m 0.02928,0.0884 c 0.679867,-0.225207 1.400151,0.01531 1.817635,0.548091 l -0.840432,0.278394 c -0.211735,-0.130663 -0.477277,-0.170236 -0.731882,-0.0859 -0.254604,0.08434 -0.444906,0.27491 -0.53724,0.506297 l -0.840891,0.278546 c 0.01731,-0.676809 0.452944,-1.300224 1.13281,-1.525431 z m 0.274603,0.828983 c 0.200142,-0.0663 0.407508,-0.04753 0.583062,0.0371 l -1.029587,0.341052 c 0.09073,-0.172839 0.246383,-0.311855 0.446525,-0.378152 z m -0.328365,1.39771 -0.79784,0.264286 c -0.08197,-0.121961 -0.149108,-0.256813 -0.197586,-0.403162 -0.05077,-0.153278 -0.07764,-0.308877 -0.08305,-0.462449 l 4e-6,-1e-6 0.804251,-0.26641 0.106712,-0.03535 1.187597,-0.393393 0.106715,-0.03535 0.803793,-0.266258 c 0.08724,0.126467 0.158225,0.26745 0.208999,0.420728 0.04848,0.146349 0.0755,0.29449 0.08263,0.441242 l -0.797368,0.26413 -0.104879,0.03474 -1.215078,0.402497 z m -0.741077,0.343579 0.830814,-0.275209 c 0.216145,0.143395 0.493573,0.189741 0.758094,0.102118 0.264519,-0.08762 0.458531,-0.290134 0.545837,-0.534048 l 0.830356,-0.275057 c -0.0074,0.685563 -0.443701,1.320543 -1.131326,1.54832 -0.687627,0.227778 -1.41812,-0.0207 -1.833775,-0.566124 z m 0.947605,-0.313896 1.070807,-0.354707 c -0.08782,0.185429 -0.24854,0.335949 -0.45924,0.405744 -0.210701,0.06979 -0.429965,0.04514 -0.611567,-0.05104 z" />
    <path
       id="path44"
       style="opacity:1;fill:none;fill-opacity:1;stroke:#000000;stroke-width:0.0499999;stroke-linecap:square;stroke-linejoin:round;stroke-dasharray:none;stroke-opacity:1"
       d="m 70.800006,44.776771 c 0.701583,-0.09355 0.608039,-0.140317 0.795129,-0.18709 0.187089,-0.04677 0.701582,-0.23386 0.654809,-0.420949 -0.04677,-0.18709 -0.23386,-0.467723 -0.23386,-0.467723 0,0 0.795126,-0.23386 0.795126,-0.04677 0,0.187087 0.18709,0.701582 0.18709,0.701582 m -2.465872,0.826093 c 0.841899,-1.075762 0.608037,-1.403165 0.935443,-1.309622" />
    <path
       style="opacity:1;fill:none;fill-opacity:1;stroke:#000000;stroke-width:0.0499999;stroke-linecap:square;stroke-linejoin:round;stroke-dasharray:none;stroke-opacity:1"
       d="m 69.453124,42.258919 c 0.992188,-0.785482 1.099675,-1.30638 0.843359,-0.909505 -0.256315,0.396875 -0.719335,0.752408 0.06615,0.876432 0.785482,0.124023 1.016992,0.248047 1.041797,-0.03307 0.02479,-0.28112 -1.198893,-1.463477 0.0083,-0.950846 1.207162,0.51263 -0.454752,0.446484 0.446485,0.611849 0.901237,0.165364 1.016992,0.198437 1.273307,0.132291 0.256315,-0.06615 0.165364,-0.14056 0.487825,-0.173633 0.322461,-0.03307 -0.214974,-0.702799 -0.413411,-0.471289"
       id="path45" />
    <rect
       style="opacity:1;fill:#fada90;fill-opacity:1;stroke:#000000;stroke-width:0.1;stroke-linecap:square;stroke-linejoin:round;stroke-dasharray:none;stroke-opacity:1"
       id="rect45"
       width="6.614583"
       height="9.9880209"
       x="57.745312"
       y="30.757812" />
    <rect
       style="fill:#fbe3ab;fill-opacity:1;stroke:#000000;stroke-width:0.1;stroke-linecap:square;stroke-linejoin:round;stroke-dasharray:none;stroke-opacity:1"
       id="rect45-8"
       width="6.614583"
       height="9.9880209"
       x="58.501064"
       y="29.740383"
       transform="rotate(0.9324872)" />
    <rect
       style="fill:#fdefcf;fill-opacity:1;stroke:#000000;stroke-width:0.1;stroke-linecap:square;stroke-linejoin:round;stroke-dasharray:none;stroke-opacity:1"
       id="rect45-7"
       width="6.614583"
       height="9.9880209"
       x="56.995953"
       y="32.016567"
       transform="rotate(-1.0483721)" />
    <rect
       style="opacity:1;fill:#021f2d;fill-opacity:1;stroke:#000000;stroke-width:0.1;stroke-linecap:square;stroke-linejoin:round;stroke-dasharray:none;stroke-opacity:1"
       id="rect46"
       width="1.7539562"
       height="1.1225319"
       x="59.003086"
       y="30.191435" />
    <path
       style="fill:none;fill-opacity:1;stroke:#656565;stroke-width:0.1;stroke-linecap:square;stroke-linejoin:round;stroke-dasharray:none;stroke-opacity:1"
       d="m 59.499516,31.224967 c 0,0 0.331101,-0.71894 0.206706,-1.183188 -0.073,-0.272433 -0.267671,-0.318665 -0.272852,-0.557238 -0.0074,-0.340477 0.190905,-0.438251 0.452016,-0.438251 0.261111,0 0.452016,0.103547 0.452016,0.438251 0,0.23863 -0.199854,0.284805 -0.272852,0.557238 -0.127324,0.475179 0.206706,1.183188 0.206706,1.183188"
       id="path46-2"
       sodipodi:nodetypes="csszssc" />
    <path
       style="opacity:1;fill:none;fill-opacity:1;stroke:#000000;stroke-width:0.1;stroke-linecap:square;stroke-linejoin:round;stroke-dasharray:none;stroke-opacity:1"
       d="m 58.979704,33.863048 c 0.374176,-0.561265 0.09354,-0.888671 0.841899,-0.561265 0.748353,0.327406 1.543481,0.374176 0.935442,0.09354 -0.608039,-0.280633 -0.467722,0.514495 0.467723,0.327406 0.935442,-0.18709 0.701582,-0.420949 0.701582,-0.420949 0,0 -0.514495,-0.140317 0.04677,0.280632 0.561266,0.42095 0.795126,0.65481 0.888669,0.04677 0.09355,-0.608039 -0.982215,-1.122532 -0.374176,-0.608039"
       id="path46" />
    <path
       style="opacity:1;fill:none;fill-opacity:1;stroke:#000000;stroke-width:0.1;stroke-linecap:square;stroke-linejoin:round;stroke-dasharray:none;stroke-opacity:1"
       d="m 58.652296,35.383145 c 1.356394,-0.327406 1.356394,-0.327406 1.356394,-0.327406 0,0 -0.654812,-0.561266 -0.374179,-0.140317 0.280633,0.42095 0.795129,0.841899 1.216078,0.654812 0.42095,-0.187089 0.42095,-0.467722 0.42095,-0.467722 0,0 0.608039,0.327406 0.841899,0 0.233859,-0.327406 0.374176,0.23386 0.561265,0.280633"
       id="path47" />
    <path
       style="opacity:1;fill:none;fill-opacity:1;stroke:#000000;stroke-width:0.1;stroke-linecap:square;stroke-linejoin:round;stroke-dasharray:none;stroke-opacity:1"
       d="m 59.283723,36.856467 c 0,0 -0.04677,-0.187089 0.514492,-0.187089 0.561266,0 1.075759,-0.42095 0.701583,-0.327404 -0.374177,0.09354 -1.917658,0.140317 -0.42095,0.514493 1.496709,0.374177 1.590255,0.374177 1.590255,0.374177 0,0 -0.09355,-0.46772 -0.04677,-0.65481 0.04677,-0.187089 -0.23386,-1.169304 -0.23386,-0.23386 0,0.935443 0.09354,1.216076 0.701582,0.982216 0.608039,-0.233863 0.374176,-0.374179 0.701582,-0.374179 0.327406,0 0.09354,-0.374177 0.09354,-0.374177"
       id="path48" />
    <path
       style="opacity:1;fill:none;fill-opacity:1;stroke:#000000;stroke-width:0.1;stroke-linecap:square;stroke-linejoin:round;stroke-dasharray:none;stroke-opacity:1"
       d="m 59.236948,38.516878 c 1.075761,0 1.122532,-0.327403 0.841899,-0.420949 -0.280633,-0.09354 -1.262848,-0.841899 -0.46772,-0.140317 0.795126,0.701583 2.338607,0.795129 2.338607,0.795129 0,0 0.561266,-0.140317 0.140317,-0.467723 -0.42095,-0.327406 -0.701583,-0.23386 -0.608039,-0.04677 0.09355,0.18709 0.748355,0.327406 0.748355,0.327406 0,0 -1.496708,-0.04677 -0.514493,-0.04677 0.982216,0 1.496708,0.04677 1.496708,0.04677"
       id="path49" />
    <rect
       style="fill:#ae6126;fill-opacity:1;stroke:#000000;stroke-width:0.212759;stroke-linecap:round;stroke-linejoin:round;stroke-dasharray:none;stroke-opacity:1"
       id="rect48"
       width="20.888079"
       height="29.613428"
       x="81.465752"
       y="22.834341" />
    <rect
       style="fill:#f5e3d3;fill-opacity:1;stroke:#000000;stroke-width:0.127656;stroke-linecap:round;stroke-linejoin:round;stroke-dasharray:none;stroke-opacity:1"
       id="rect47"
       width="18.947113"
       height="27.783792"
       x="82.453186"
       y="23.77005"
       rx="0"
       ry="0" />
    <path
       style="fill:none;fill-opacity:1;stroke:#000000;stroke-width:1.27656;stroke-linecap:round;stroke-linejoin:round;stroke-dasharray:none;stroke-opacity:1"
       d="M 101.10212,24.029613 H 98.68154"
       id="path49-79"
       sodipodi:nodetypes="cc" />
    <path
       style="fill:none;fill-opacity:1;stroke:#111111;stroke-width:0.340415;stroke-linecap:square;stroke-linejoin:round;stroke-dasharray:none;stroke-opacity:1"
       d="m 89.404773,25.017369 v 0.534855 H 94.3163 v -0.534855"
       id="path50"
       sodipodi:nodetypes="cccc" />
    <rect
       style="fill:none;fill-opacity:1;stroke:#000000;stroke-width:0.340415;stroke-linecap:square;stroke-linejoin:round;stroke-dasharray:none;stroke-opacity:1"
       id="rect50"
       width="2.587316"
       height="2.587316"
       x="84.085182"
       y="29.024292"
       rx="0.23882915"
       ry="0.23882915" />
    <rect
       style="fill:none;fill-opacity:1;stroke:#000000;stroke-width:0.340415;stroke-linecap:square;stroke-linejoin:round;stroke-dasharray:none;stroke-opacity:1"
       id="rect50-3-2"
       width="2.587316"
       height="2.587316"
       x="84.085182"
       y="35.114433"
       rx="0.23882915"
       ry="0.23882915" />
    <rect
       style="fill:none;fill-opacity:1;stroke:#000000;stroke-width:0.340415;stroke-linecap:square;stroke-linejoin:round;stroke-dasharray:none;stroke-opacity:1"
       id="rect50-3"
       width="2.587316"
       height="2.587316"
       x="84.085182"
       y="41.124969"
       rx="0.23882915"
       ry="0.23882915" />
    <rect
       style="fill:none;fill-opacity:1;stroke:#000000;stroke-width:0.340415;stroke-linecap:square;stroke-linejoin:round;stroke-dasharray:none;stroke-opacity:1"
       id="rect50-3-2-7"
       width="2.587316"
       height="2.587316"
       x="84.085182"
       y="46.97628"
       rx="0.23882915"
       ry="0.23882915" />
    <path
       style="fill:none;fill-opacity:1;stroke:#bf0000;stroke-width:0.520635;stroke-linecap:round;stroke-linejoin:round;stroke-dasharray:none;stroke-opacity:1"
       d="m 84.30225,47.929349 c 0.523783,0.243074 0.875377,0.597564 1.14594,1.002698 0.382842,-0.755569 0.927742,-1.541525 1.604317,-2.205935"
       id="path51"
       sodipodi:nodetypes="ccc" />
    <path
       style="fill:none;fill-opacity:1;stroke:#bf0000;stroke-width:0.520635;stroke-linecap:round;stroke-linejoin:round;stroke-dasharray:none;stroke-opacity:1"
       d="m 84.30225,41.951879 c 0.523783,0.243074 0.875377,0.597564 1.14594,1.002697 0.382842,-0.755569 0.927742,-1.541524 1.604317,-2.205935"
       id="path51-3"
       sodipodi:nodetypes="ccc" />
    <path
       style="fill:none;fill-opacity:1;stroke:#bf0000;stroke-width:0.520635;stroke-linecap:round;stroke-linejoin:round;stroke-dasharray:none;stroke-opacity:1"
       d="m 84.30225,35.924596 c 0.523783,0.243074 0.875377,0.597564 1.14594,1.002698 0.382842,-0.755569 0.927742,-1.541525 1.604317,-2.205935"
       id="path51-3-5"
       sodipodi:nodetypes="ccc" />
    <path
       style="fill:none;fill-opacity:1;stroke:#bf0000;stroke-width:0.520635;stroke-linecap:round;stroke-linejoin:round;stroke-dasharray:none;stroke-opacity:1"
       d="m 84.30225,29.797689 c 0.523783,0.243074 0.875377,0.597564 1.14594,1.002697 0.382842,-0.755569 0.927742,-1.541524 1.604317,-2.205935"
       id="path51-3-5-4"
       sodipodi:nodetypes="ccc" />
    <path
       style="fill:none;fill-opacity:1;stroke:#272727;stroke-width:0.595334;stroke-linecap:square;stroke-linejoin:round;stroke-dasharray:none;stroke-opacity:1"
       d="m 88.503524,29.462144 h 3.144583"
       id="path52" />
    <path
       style="fill:none;fill-opacity:1;stroke:#272727;stroke-width:0.595334;stroke-linecap:square;stroke-linejoin:round;stroke-dasharray:none;stroke-opacity:1"
       d="m 88.494568,30.895122 h 8.398597"
       id="path52-1" />
    <path
       style="fill:none;fill-opacity:1;stroke:#272727;stroke-width:0.595334;stroke-linecap:square;stroke-linejoin:round;stroke-dasharray:none;stroke-opacity:1"
       d="M 88.420764,43.138755 H 99.50014"
       id="path52-1-4" />
    <path
       style="fill:none;fill-opacity:1;stroke:#272727;stroke-width:0.595334;stroke-linecap:square;stroke-linejoin:round;stroke-dasharray:none;stroke-opacity:1"
       d="m 88.199591,48.176941 h 2.852657"
       id="path52-1-4-2" />
    <path
       style="fill:none;fill-opacity:1;stroke:#272727;stroke-width:0.595334;stroke-linecap:square;stroke-linejoin:round;stroke-dasharray:none;stroke-opacity:1"
       d="M 93.079837,48.176941 H 99.54149"
       id="path52-1-4-2-2" />
    <path
       style="fill:none;fill-opacity:1;stroke:#272727;stroke-width:0.595334;stroke-linecap:square;stroke-linejoin:round;stroke-dasharray:none;stroke-opacity:1"
       d="m 88.435845,36.299209 h 6.742829"
       id="path52-1-2" />
    <path
       style="fill:none;fill-opacity:1;stroke:#272727;stroke-width:0.595334;stroke-linecap:square;stroke-linejoin:round;stroke-dasharray:none;stroke-opacity:1"
       d="m 88.435845,41.618857 h 6.742829"
       id="path52-1-2-9" />
    <path
       style="fill:none;fill-opacity:1;stroke:#272727;stroke-width:0.595334;stroke-linecap:square;stroke-linejoin:round;stroke-dasharray:none;stroke-opacity:1"
       d="m 96.625484,41.618857 h 3.536006"
       id="path52-1-2-9-5" />
    <path
       style="fill:none;fill-opacity:1;stroke:#272727;stroke-width:0.595334;stroke-linecap:square;stroke-linejoin:round;stroke-dasharray:none;stroke-opacity:1"
       d="M 93.167217,29.462142 H 99.48314"
       id="path52-8" />
    <path
       style="fill:none;fill-opacity:1;stroke:#3c3c3c;stroke-width:1.0638;stroke-linecap:round;stroke-linejoin:round;stroke-dasharray:none;stroke-opacity:1"
       d="M 96.401695,24.029613 H 88.520728"
       id="path49-7" />
    <rect
       style="fill:#454545;fill-opacity:1;stroke:none;stroke-width:0.212759;stroke-linecap:round;stroke-linejoin:round;stroke-dasharray:none;stroke-opacity:1"
       id="rect49"
       width="6.886241"
       height="1.7116091"
       x="88.461723"
       y="23.212782"
       rx="0.23882917"
       ry="0.23882917" />
    <path
       style="fill:none;fill-opacity:1;stroke:#000000;stroke-width:1.27656;stroke-linecap:square;stroke-linejoin:round;stroke-dasharray:none;stroke-opacity:1"
       d="M 98.68154,24.029613 H 96.260955"
       id="path49-4"
       sodipodi:nodetypes="cc" />
    <path
       style="fill:none;fill-opacity:1;stroke:#b4b4b4;stroke-width:0.425519;stroke-linecap:round;stroke-linejoin:round;stroke-dasharray:none;stroke-opacity:1"
       d="M 101.10212,24.029613 H 98.68154"
       id="path49-0"
       sodipodi:nodetypes="cc" />
  </g>
</svg>
