<?xml version="1.0" encoding="UTF-8" standalone="no"?>
<!-- Created with Inkscape (http://www.inkscape.org/) -->

<svg
   width="67.291016mm"
   height="55.251255mm"
   viewBox="0 0 67.291016 55.251255"
   version="1.1"
   id="svg1"
   inkscape:version="1.4.2 (f4327f4, 2025-05-13)"
   sodipodi:docname="BazaDat.svg"
   xmlns:inkscape="http://www.inkscape.org/namespaces/inkscape"
   xmlns:sodipodi="http://sodipodi.sourceforge.net/DTD/sodipodi-0.dtd"
   xmlns="http://www.w3.org/2000/svg"
   xmlns:svg="http://www.w3.org/2000/svg">
  <sodipodi:namedview
     id="namedview1"
     pagecolor="#ffffff"
     bordercolor="#000000"
     borderopacity="0.25"
     inkscape:showpageshadow="2"
     inkscape:pageopacity="0.0"
     inkscape:pagecheckerboard="0"
     inkscape:deskcolor="#d1d1d1"
     inkscape:document-units="mm"
     inkscape:zoom="2.0334082"
     inkscape:cx="170.64946"
     inkscape:cy="106.47149"
     inkscape:window-width="1920"
     inkscape:window-height="1009"
     inkscape:window-x="1912"
     inkscape:window-y="-8"
     inkscape:window-maximized="1"
     inkscape:current-layer="layer1"
     showgrid="false" />
  <defs
     id="defs1" />
  <g
     inkscape:label="Vrstva 1"
     inkscape:groupmode="layer"
     id="layer1"
     transform="translate(-52.438332,-62.037594)">
    <g
       id="path2"
       style="opacity:1">
      <g
         id="g2">
        <g
           id="path3"
           style="opacity:1" />
      </g>
    </g>
    <ellipse
       style="fill:#374e64;fill-opacity:1;stroke:#000000;stroke-width:1.05833;stroke-linecap:round;stroke-dasharray:none;stroke-opacity:1"
       id="path12"
       cx="79.194969"
       cy="95.682137"
       rx="26.22747"
       ry="9.4315529" />
    <path
       style="fill:#4c6c8a;fill-opacity:1;stroke:#000000;stroke-width:1.05833;stroke-linecap:square;stroke-dasharray:none;stroke-opacity:1"
       d="m 105.42138,95.681865 c 0.001,3.369844 -4.99786,6.483455 -13.112676,8.168245 -8.114808,1.68478 -18.112662,1.68478 -26.22747,0 -8.114812,-1.68479 -13.113739,-4.798401 -13.113731,-8.162535 v 7.853145 c 5e-6,3.36776 4.998931,6.48136 13.113731,8.16614 8.114808,1.68478 18.112662,1.68478 26.22747,0 8.114796,-1.68478 13.113726,-4.79838 13.112676,-8.16523 z"
       id="path13-1"
       sodipodi:nodetypes="cssccsscc" />
    <ellipse
       style="fill:#34575d;fill-opacity:1;stroke:#000000;stroke-width:1.05833;stroke-linecap:round;stroke-dasharray:none;stroke-opacity:1"
       id="path12-2"
       cx="79.194969"
       cy="83.888275"
       rx="26.22747"
       ry="9.4315529" />
    <path
       style="fill:#427077;fill-opacity:1;stroke:#000000;stroke-width:1.05833;stroke-linecap:square;stroke-dasharray:none;stroke-opacity:1"
       d="m 105.42138,83.887996 c 0.001,3.369844 -4.99786,6.483451 -13.112676,8.168243 -8.114808,1.684774 -18.112662,1.684774 -26.22747,0 C 57.966422,90.371447 52.967495,87.25784 52.967503,83.893705 v 7.85314 c 5e-6,3.367756 4.998931,6.481354 13.113731,8.166132 8.114808,1.684773 18.112662,1.684773 26.22747,0 8.114796,-1.684778 13.113726,-4.798376 13.112676,-8.165219 z"
       id="path13-1-3"
       sodipodi:nodetypes="cssccsscc" />
    <ellipse
       style="fill:#3b6b4d;fill-opacity:1;stroke:#000000;stroke-width:1.05833;stroke-linecap:round;stroke-dasharray:none;stroke-opacity:1"
       id="path12-8"
       cx="79.194969"
       cy="71.998314"
       rx="26.22747"
       ry="9.4315529" />
    <path
       style="fill:#427756;fill-opacity:1;stroke:#000000;stroke-width:1.05833;stroke-linecap:square;stroke-dasharray:none;stroke-opacity:1"
       d="m 105.42138,71.998044 c 0.001,3.369844 -4.99786,6.48345 -13.112676,8.168243 -8.114808,1.684777 -18.112662,1.684777 -26.22747,0 -8.114812,-1.684793 -13.113739,-4.798399 -13.113731,-8.162534 v 7.85314 c 5e-6,3.367758 4.998931,6.481366 13.113731,8.166144 8.114808,1.684778 18.112662,1.684778 26.22747,0 8.114796,-1.684778 13.113726,-4.798386 13.112676,-8.165231 z"
       id="path13-1-5"
       sodipodi:nodetypes="cssccsscc" />
    <path
       id="path13-9"
       style="fill:#5e5e5e;fill-opacity:1;stroke:#000000;stroke-width:1.05833;stroke-linecap:square"
       d="m 114.45798,96.863577 c 1.39701,-3.862424 0.10968,-8.189638 -3.16672,-10.644142 -3.27634,-2.454503 -7.76505,-2.454503 -11.04139,0 -3.27634,2.454502 -4.563724,6.781718 -3.16671,10.644142 m 3.29789,-0.0496 c -1.51004,-2.632854 -0.92425,-5.977055 1.38928,-7.931226 2.31354,-1.954175 5.68693,-1.954175 8.00047,0 2.31353,1.954176 2.89931,5.298376 1.38926,7.931226"
       sodipodi:nodetypes="cssccssc" />
    <rect
       style="fill:#d99a0d;fill-opacity:1;stroke:#000000;stroke-width:1.05833;stroke-linecap:square;stroke-dasharray:none;stroke-opacity:1"
       id="rect13"
       width="27.37677"
       height="19.938692"
       x="91.82341"
       y="96.820992"
       rx="2.7602251"
       ry="2.7602248" />
    <path
       id="rect14"
       style="stroke-width:1.05833;stroke-linecap:square"
       d="m 105.39637,100.1459 a 3.041512,3.041512 0 0 0 -3.04167,3.04167 3.041512,3.041512 0 0 0 1.37718,2.54558 l -0.99426,7.37578 c 0,0 1.03688,0.66714 2.65927,0.66714 1.62239,0 2.65875,-0.66714 2.65875,-0.66714 l -0.99425,-7.37578 a 3.041512,3.041512 0 0 0 1.37666,-2.54558 3.041512,3.041512 0 0 0 -3.04168,-3.04167 z" />
  </g>
</svg>
