<?xml version="1.0" encoding="UTF-8" standalone="no"?>
<!-- Created with Inkscape (http://www.inkscape.org/) -->

<svg
   width="60mm"
   height="60mm"
   viewBox="0 0 59.999999 60"
   version="1.1"
   id="svg1"
   inkscape:version="1.4 (86a8ad7, 2024-10-11)"
   sodipodi:docname="Individuum.svg"
   xml:space="preserve"
   xmlns:inkscape="http://www.inkscape.org/namespaces/inkscape"
   xmlns:sodipodi="http://sodipodi.sourceforge.net/DTD/sodipodi-0.dtd"
   xmlns:xlink="http://www.w3.org/1999/xlink"
   xmlns="http://www.w3.org/2000/svg"
   xmlns:svg="http://www.w3.org/2000/svg"><sodipodi:namedview
     id="namedview1"
     pagecolor="#000000"
     bordercolor="#000000"
     borderopacity="0.25"
     inkscape:showpageshadow="2"
     inkscape:pageopacity="0.0"
     inkscape:pagecheckerboard="0"
     inkscape:deskcolor="#d1d1d1"
     inkscape:document-units="mm"
     inkscape:zoom="2.8284271"
     inkscape:cx="166.17009"
     inkscape:cy="126.57211"
     inkscape:window-width="2323"
     inkscape:window-height="1366"
     inkscape:window-x="2781"
     inkscape:window-y="0"
     inkscape:window-maximized="0"
     inkscape:current-layer="layer1" /><defs
     id="defs1"><linearGradient
       id="linearGradient40"
       inkscape:collect="always"><stop
         style="stop-color:#25c4e4;stop-opacity:1;"
         offset="0"
         id="stop40" /><stop
         style="stop-color:#c9e7ff;stop-opacity:1;"
         offset="1"
         id="stop41" /></linearGradient><filter
       inkscape:collect="always"
       style="color-interpolation-filters:sRGB"
       id="filter39"
       x="-0.11603662"
       y="-0.1160324"
       width="1.2320732"
       height="1.2320648"><feGaussianBlur
         inkscape:collect="always"
         stdDeviation="1.9344748"
         id="feGaussianBlur39" /></filter><clipPath
       clipPathUnits="userSpaceOnUse"
       id="clipPath39"><path
         style="opacity:0.242291;fill:#d300ff;fill-opacity:1;fill-rule:evenodd;stroke:none;stroke-width:0.999998;stroke-linecap:butt;stroke-linejoin:miter;stroke-dasharray:none;stroke-opacity:1"
         d="m 59.378922,107.46065 c -1e-6,-0.73306 0.384082,-0.99537 0.96014,-0.65915 0.57605,0.33623 1.344129,0.6814 2.112211,0.71719 1.536148,0.0716 3.072295,-1.09435 3.072298,-6.04443 -2e-6,-9.900162 -6.143704,-4.664323 -6.143704,-4.664323 0,0 -6.143681,5.235843 -6.143685,-4.664319 5e-6,-4.950084 1.53615,-6.116019 3.0723,-6.04443 0.76808,0.0358 1.536146,0.38096 2.112209,0.717186 0.576047,0.336226 0.959809,0.0136 0.959809,-0.659308 -6.34e-4,-3.086561 -9.98e-4,-6.17311 -0.0028,-9.261103 l 9.25767,-0.0012 c 0.733063,10e-7 0.995373,0.384082 0.659149,0.960137 -0.336224,0.576058 -0.681397,1.344133 -0.71719,2.112209 -0.07158,1.53615 1.094351,3.072301 6.044433,3.072302 9.900163,-10e-7 4.664321,-6.143696 4.664321,-6.143696 0,0 -5.235848,-6.143697 4.664318,-6.143698 4.950082,10e-7 6.116019,1.536152 6.044433,3.072302 -0.03579,0.768076 -0.380963,1.536151 -0.71719,2.112208 -0.336225,0.576056 -0.01365,0.959818 0.659307,0.959818 3.086558,-6.35e-4 6.173113,-0.0013 9.259503,-0.0025 l -5.29e-4,9.257931 c 10e-7,0.733061 -0.384083,0.995373 -0.960137,0.659149 -0.576057,-0.336225 -1.344132,-0.681399 -2.112208,-0.717191 -1.536152,-0.07158 -3.072299,1.094349 -3.072299,6.044432 0,9.900154 6.143693,4.664321 6.143693,4.664321 0,0 6.143696,-5.235847 6.143696,4.664313 0,4.95008 -1.53615,6.11602 -3.0723,6.04443 -0.76808,-0.0358 -1.53615,-0.38096 -2.11221,-0.71719 -0.576055,-0.33622 -0.959814,-0.0136 -0.959815,0.65931 l 0.0021,9.26068 -9.258545,-2.6e-4 c -0.733055,0 -0.995362,-0.38408 -0.659142,-0.96014 0.336225,-0.57606 0.681394,-1.34413 0.717182,-2.11221 0.0716,-1.53616 -1.094347,-3.07231 -6.044423,-3.07231 -9.900162,0 -4.664321,6.14371 -4.664321,6.14371 0,0 5.235836,6.14367 -4.664319,6.14368 -4.950085,0 -6.116024,-1.53614 -6.04443,-3.07229 0.0358,-0.76808 0.380959,-1.53615 0.717187,-2.11222 0.336223,-0.57604 0.0136,-0.9598 -0.65931,-0.9598 -3.086557,5.3e-4 -6.173114,0.001 -9.258771,0.004 z"
         id="path40"
         sodipodi:nodetypes="cssscssscccssscssscccssscssscccssscsssccc"
         inkscape:label="mask" /></clipPath><linearGradient
       inkscape:collect="always"
       xlink:href="#linearGradient40"
       id="linearGradient41"
       x1="70.665215"
       y1="101.96654"
       x2="96.178505"
       y2="93.433723"
       gradientUnits="userSpaceOnUse"
       gradientTransform="matrix(0.71350745,0,0,0.71194148,24.212087,28.727991)" /><filter
       inkscape:collect="always"
       style="color-interpolation-filters:sRGB"
       id="filter1"
       x="-0.45162507"
       y="-0.43253959"
       width="1.9032501"
       height="1.8650792"><feGaussianBlur
         inkscape:collect="always"
         stdDeviation="5.172828"
         id="feGaussianBlur1" /></filter><clipPath
       clipPathUnits="userSpaceOnUse"
       id="clipPath2"><path
         sodipodi:type="star"
         style="fill:#ffffff;fill-opacity:1;stroke:none;stroke-width:1;stroke-linecap:round;stroke-linejoin:round;stroke-miterlimit:0;stroke-dasharray:none;stroke-opacity:1;paint-order:stroke fill markers"
         id="path2"
         inkscape:flatsided="false"
         sodipodi:sides="6"
         sodipodi:cx="91.958267"
         sodipodi:cy="50.636719"
         sodipodi:r1="16.072758"
         sodipodi:r2="7.8548741"
         sodipodi:arg1="1.7522115"
         sodipodi:arg2="2.2758103"
         inkscape:rounded="0"
         inkscape:randomized="0"
         d="m 89.058393,66.445712 -2.190434,-9.826701 -10.050619,-0.58916 7.414957,-6.810322 -4.515082,-8.998672 9.605389,3.01638 5.535538,-8.409512 2.190433,9.826702 10.050615,0.58916 -7.414952,6.810322 4.515082,8.998671 -9.60539,-3.01638 z"
         inkscape:transform-center-x="0.44008579"
         inkscape:transform-center-y="0.044564953" /></clipPath></defs><g
     inkscape:label="Vrstva 1"
     inkscape:groupmode="layer"
     id="layer1"
     transform="translate(-50.424586,-67.942419)"><path
       style="fill:url(#linearGradient41);fill-opacity:1;fill-rule:evenodd;stroke:none;stroke-width:0.999986;stroke-linecap:butt;stroke-linejoin:miter;stroke-dasharray:none;stroke-opacity:1;paint-order:stroke fill markers"
       d="m 76.115329,113.03433 c -0.369848,-0.36903 -0.308411,-0.69444 0.151858,-0.81517 0.460269,-0.12074 1.021932,-0.33364 1.427507,-0.7023 0.811149,-0.73727 0.997925,-2.09757 -1.499517,-4.58953 -4.99489,-4.98393 -5.45293,0.74475 -5.45293,0.74475 0,0 -0.45803,5.72867 -5.45292,0.74474 -2.497443,-2.49196 -2.310663,-3.85225 -1.499516,-4.58952 0.405578,-0.36863 0.96723,-0.58155 1.427504,-0.70228 0.460264,-0.12073 0.491111,-0.47634 0.15161,-0.8151 -1.557569,-1.55351 -3.114999,-3.107156 -4.673879,-4.660802 l 4.670131,-4.66109 c 0.369847,-0.369038 0.69597,-0.307735 0.81697,0.151524 0.121001,0.45926 0.334368,1.01969 0.703824,1.424371 0.738912,0.809361 2.102183,0.995738 4.599627,-1.496226 4.99489,-4.983927 -0.746382,-5.440956 -0.746382,-5.440956 0,0 -5.741274,-0.457028 -0.746384,-5.440958 2.497445,-2.491963 3.860717,-2.30559 4.599627,-1.496224 0.369459,0.40468 0.582823,0.96511 0.703824,1.424368 0.121004,0.459261 0.477371,0.490059 0.81689,0.151285 1.556931,-1.554147 3.113841,-3.108314 4.670399,-4.662666 l 4.670636,4.660848 c 0.369846,0.369037 0.308412,0.694443 -0.151858,0.815179 -0.460271,0.120736 -1.021933,0.333632 -1.427505,0.702277 -0.811142,0.737293 -0.997928,2.09757 1.499517,4.589533 4.994888,4.983925 5.452923,-0.744744 5.452923,-0.744744 0,0 0.458035,-5.728673 5.45292,-0.744748 2.497449,2.491964 2.310667,3.852246 1.499524,4.589534 -0.405581,0.368643 -0.967231,0.581543 -1.427509,0.702278 -0.460268,0.120737 -0.491112,0.476344 -0.151612,0.815098 l 4.673362,4.660892 -4.671328,4.660777 c -0.369847,0.36902 -0.695965,0.30774 -0.816972,-0.15154 -0.120995,-0.45924 -0.334363,-1.01968 -0.703824,-1.42436 -0.738904,-0.809374 -2.102184,-0.995738 -4.599628,1.49623 -4.994887,4.98393 0.746387,5.44095 0.746387,5.44095 0,0 5.741271,0.45703 0.746381,5.44096 -2.497445,2.49196 -3.860719,2.30559 -4.599628,1.49622 -0.369453,-0.40468 -0.582823,-0.96512 -0.703823,-1.42437 -0.121,-0.45925 -0.477387,-0.49002 -0.816888,-0.15127 -1.556932,1.55414 -3.113989,3.10815 -4.669272,4.66303 z"
       id="path39-7"
       sodipodi:nodetypes="cssscssscccssscssscccssscssscccssscsssccc"
       inkscape:label="border" /><path
       style="mix-blend-mode:normal;fill:none;fill-opacity:1;fill-rule:evenodd;stroke:#000000;stroke-width:2.80613;stroke-linecap:butt;stroke-linejoin:miter;stroke-dasharray:none;stroke-opacity:1;filter:url(#filter39)"
       d="m 59.378921,107.46065 c 0,-0.73306 0.38408,-0.99537 0.96014,-0.65915 0.57605,0.33623 1.34413,0.6814 2.11221,0.71719 1.53615,0.0716 3.0723,-1.09435 3.0723,-6.04443 0,-9.900164 -6.1437,-4.664326 -6.1437,-4.664326 0,0 -6.143686,5.235846 -6.143686,-4.664318 0,-4.95008 1.53615,-6.11602 3.0723,-6.04443 0.76808,0.0358 1.536146,0.38096 2.112206,0.71719 0.57605,0.33622 0.95981,0.0136 0.95981,-0.65931 -6.3e-4,-3.08656 -0.001,-6.17311 -0.0028,-9.261103 l 9.257673,-0.0012 c 0.733061,0 0.995372,0.384081 0.659148,0.960137 -0.336225,0.576057 -0.681398,1.344133 -0.71719,2.112208 -0.07158,1.53615 1.09435,3.072301 6.044431,3.072301 9.900165,0 4.664321,-6.143694 4.664321,-6.143694 0,0 -5.235846,-6.143697 4.664319,-6.143697 4.950083,0 6.116018,1.536151 6.044432,3.072301 -0.03579,0.768075 -0.380963,1.536151 -0.717188,2.112207 -0.336225,0.576056 -0.01364,0.959819 0.659307,0.959819 3.086556,-6.31e-4 6.173111,-0.0013 9.259504,-0.0025 l -4.62e-4,9.257931 c 0,0.733061 -0.384081,0.995372 -0.960137,0.659148 -0.576057,-0.336225 -1.344133,-0.681398 -2.112208,-0.71719 -1.53615,-0.07158 -3.072301,1.09435 -3.072301,6.044431 0,9.900155 6.143694,4.664321 6.143694,4.664321 0,0 6.143696,-5.235846 6.143696,4.664314 0,4.95008 -1.53615,6.11602 -3.0723,6.04443 -0.76808,-0.0358 -1.53615,-0.38096 -2.11221,-0.71719 -0.576053,-0.33622 -0.959816,-0.0136 -0.959816,0.65931 l 0.0022,9.26068 -9.258543,-3e-4 c -0.73306,0 -0.99537,-0.38408 -0.65915,-0.96014 0.33623,-0.57605 0.6814,-1.34413 0.71719,-2.11221 0.0716,-1.53615 -1.09435,-3.0723 -6.04443,-3.0723 -9.90016,0 -4.664322,6.1437 -4.664322,6.1437 0,0 5.235842,6.14369 -4.664318,6.14369 -4.95008,0 -6.11602,-1.53615 -6.04443,-3.0723 0.0358,-0.76808 0.38096,-1.53615 0.71719,-2.11221 0.33622,-0.57605 0.0136,-0.95981 -0.65931,-0.95981 -3.08656,6.3e-4 -6.17311,10e-4 -9.25877,0.004 z"
       id="path39-7-0"
       sodipodi:nodetypes="cssscssscccssscssscccssscssscccssscsssccc"
       inkscape:label="blurred"
       clip-path="url(#clipPath39)"
       transform="matrix(0.50452595,-0.50341865,0.50452595,0.50341865,-8.0595628,88.829092)" /><path
       sodipodi:type="star"
       style="mix-blend-mode:normal;fill:#ffcb00;fill-opacity:1;stroke:#fed121;stroke-width:2.52287;stroke-linecap:round;stroke-linejoin:round;stroke-miterlimit:0;stroke-dasharray:none;stroke-opacity:1;paint-order:stroke fill markers;filter:url(#filter1)"
       id="path41-1"
       inkscape:flatsided="false"
       sodipodi:sides="6"
       sodipodi:cx="91.958267"
       sodipodi:cy="50.636719"
       sodipodi:r1="16.072758"
       sodipodi:r2="7.8548741"
       sodipodi:arg1="1.7522115"
       sodipodi:arg2="2.2758103"
       inkscape:rounded="0"
       inkscape:randomized="0"
       d="m 89.058393,66.445712 -2.190434,-9.826701 -10.050619,-0.58916 7.414957,-6.810322 -4.515082,-8.998672 9.605389,3.01638 5.535538,-8.409512 2.190433,9.826702 10.050615,0.58916 -7.414952,6.810322 4.515082,8.998671 -9.60539,-3.01638 z"
       inkscape:transform-center-x="0.44008579"
       inkscape:transform-center-y="0.044564953"
       transform="matrix(0.34372728,0.19987917,-0.20090139,0.34026229,71.768656,49.364489)" /><path
       id="path39-7-1"
       style="fill:none;fill-opacity:1;fill-rule:evenodd;stroke:#ffffff;stroke-width:1;stroke-linecap:butt;stroke-linejoin:miter;stroke-dasharray:none;stroke-opacity:1;paint-order:stroke fill markers"
       inkscape:label="border"
       d="m 90.594299,88.172249 -0.136058,0.905048 c -0.54705,1.279278 -1.879897,2.490168 -5.083844,-0.706747 -2.497444,-2.491963 -2.310708,-3.852334 -1.499565,-4.589626 0.405572,-0.368646 0.967396,-0.581597 1.427665,-0.702332 0.46027,-0.120737 0.521391,-0.446244 0.151543,-0.815281 L 80.783517,77.60268 c -1.55656,1.554353 -3.113585,3.108324 -4.670516,4.662473 -0.339518,0.338775 -0.695702,0.30805 -0.816702,-0.151211 -0.121001,-0.459258 -0.334423,-1.019849 -0.703878,-1.424529 -0.738912,-0.809366 -2.102277,-0.995691 -4.599721,1.496272 -4.994892,4.983928 0.746645,5.44096 0.746645,5.44096 0,0 5.741172,0.457035 0.746281,5.440962 -2.497444,2.491964 -3.860808,2.305636 -4.599723,1.496274 -0.369455,-0.404682 -0.582874,-0.964904 -0.703876,-1.424164 -0.121001,-0.459259 -0.446857,-0.520613 -0.816705,-0.151576 l -4.670146,4.661 c 1.558881,1.553647 3.116266,3.107109 4.673834,4.660629 0.339501,0.33876 0.308722,0.69455 -0.151542,0.81529 -0.460273,0.12073 -1.022088,0.3337 -1.427666,0.70234 -0.811146,0.73727 -0.997879,2.0973 1.499566,4.58926 4.99489,4.98391 5.452927,-0.74466 5.452927,-0.74466 0,0 0.458041,-5.72858 5.45293,-0.74464 2.497444,2.49196 2.310716,3.85235 1.499565,4.58963 -0.405573,0.36866 -0.967396,0.58159 -1.427664,0.70233 -0.460269,0.12073 -0.52176,0.44587 -0.151912,0.81492 l 4.670146,4.661 c 1.555284,-1.5549 3.112478,-3.1087 4.669409,-4.66286 0.339501,-0.33874 0.695705,-0.30802 0.816704,0.15123 0.121001,0.45924 0.334424,1.01947 0.703877,1.42416 0.738908,0.80936 2.102279,0.99605 4.599724,-1.4959 4.994888,-4.98393 -0.746649,-5.44098 -0.746649,-5.44098 0,0 -5.741167,-0.45702 -0.74628,-5.44094 2.497444,-2.491978 3.86082,-2.305654 4.599723,-1.49629 0.369458,0.4047 0.582881,0.96492 0.703877,1.42416 0.121007,0.45927 0.447227,0.52061 0.817074,0.15159 l 4.671241,-4.660638 -4.673452,-4.661 c -0.3395,-0.338756 -0.308727,-0.694176 0.151541,-0.814913 0.460276,-0.120735 1.022085,-0.333687 1.427665,-0.702331 0.811144,-0.737287 0.997882,-2.097664 -1.499563,-4.589628 -0.0094,-0.0094 -0.377132,-0.321127 -0.743328,-0.601159"
       sodipodi:nodetypes="ccssscccscscssscccscccscscccscscssccccscsc" /><path
       sodipodi:type="star"
       style="opacity:1;fill:#fed121;fill-opacity:1;stroke:none;stroke-width:1.26143;stroke-linecap:round;stroke-linejoin:round;stroke-miterlimit:0;stroke-dasharray:none;stroke-opacity:1;paint-order:stroke fill markers"
       id="path41"
       inkscape:flatsided="false"
       sodipodi:sides="6"
       sodipodi:cx="91.958267"
       sodipodi:cy="50.636719"
       sodipodi:r1="16.072758"
       sodipodi:r2="7.8548741"
       sodipodi:arg1="1.7522115"
       sodipodi:arg2="2.2758103"
       inkscape:rounded="0"
       inkscape:randomized="0"
       d="m 89.058393,66.445712 -2.190434,-9.826701 -10.050619,-0.58916 7.414957,-6.810322 -4.515082,-8.998672 9.605389,3.01638 5.535538,-8.409512 2.190433,9.826702 10.050615,0.58916 -7.414952,6.810322 4.515082,8.998671 -9.60539,-3.01638 z"
       inkscape:transform-center-x="0.44008579"
       inkscape:transform-center-y="0.044564953"
       transform="matrix(0.34372728,0.19987917,-0.20090139,0.34026229,71.768656,49.364489)" /></g></svg>
