<?xml version="1.0" encoding="UTF-8" standalone="no"?>
<!-- Created with Inkscape (http://www.inkscape.org/) -->

<svg
   width="61.532387mm"
   height="62.618549mm"
   viewBox="0 0 61.532386 62.618549"
   version="1.1"
   id="svg1"
   inkscape:version="1.4 (86a8ad7, 2024-10-11)"
   sodipodi:docname="KRIS.svg"
   xml:space="preserve"
   xmlns:inkscape="http://www.inkscape.org/namespaces/inkscape"
   xmlns:sodipodi="http://sodipodi.sourceforge.net/DTD/sodipodi-0.dtd"
   xmlns:xlink="http://www.w3.org/1999/xlink"
   xmlns="http://www.w3.org/2000/svg"
   xmlns:svg="http://www.w3.org/2000/svg"><sodipodi:namedview
     id="namedview1"
     pagecolor="#000000"
     bordercolor="#000000"
     borderopacity="0.25"
     inkscape:showpageshadow="2"
     inkscape:pageopacity="0.0"
     inkscape:pagecheckerboard="0"
     inkscape:deskcolor="#d1d1d1"
     inkscape:document-units="mm"
     inkscape:zoom="2"
     inkscape:cx="230.5"
     inkscape:cy="60"
     inkscape:window-width="2323"
     inkscape:window-height="1366"
     inkscape:window-x="2787"
     inkscape:window-y="-1"
     inkscape:window-maximized="0"
     inkscape:current-layer="layer1" /><defs
     id="defs1"><linearGradient
       id="linearGradient54"
       inkscape:collect="always"><stop
         style="stop-color:#ffe600;stop-opacity:0;"
         offset="0"
         id="stop54" /><stop
         style="stop-color:#ffe600;stop-opacity:0.5;"
         offset="0.14826176"
         id="stop56" /><stop
         style="stop-color:#ffe600;stop-opacity:0.5;"
         offset="0.83793455"
         id="stop57" /><stop
         style="stop-color:#ffe600;stop-opacity:0;"
         offset="1"
         id="stop55" /></linearGradient><linearGradient
       id="linearGradient52"
       inkscape:collect="always"><stop
         style="stop-color:#ffe000;stop-opacity:0.5;"
         offset="0"
         id="stop52" /><stop
         style="stop-color:#ffe000;stop-opacity:0;"
         offset="1"
         id="stop53" /></linearGradient><linearGradient
       id="linearGradient50"
       inkscape:collect="always"><stop
         style="stop-color:#fffb00;stop-opacity:1;"
         offset="0.39468303"
         id="stop50" /><stop
         style="stop-color:#d36d15;stop-opacity:1;"
         offset="1"
         id="stop51" /></linearGradient><inkscape:path-effect
       effect="copy_rotate"
       starting_point="73.615479,52.12985"
       origin="19.764663,52.12985"
       id="path-effect43"
       is_visible="true"
       lpeversion="1.2"
       lpesatellites=""
       method="normal"
       num_copies="8"
       starting_angle="0"
       rotation_angle="45"
       gap="-0.01"
       copies_to_360="true"
       mirror_copies="false"
       split_items="false"
       link_styles="true" /><clipPath
       clipPathUnits="userSpaceOnUse"
       id="clipPath39"><path
         style="opacity:0.242291;fill:#d300ff;fill-opacity:1;fill-rule:evenodd;stroke:none;stroke-width:0.999998;stroke-linecap:butt;stroke-linejoin:miter;stroke-dasharray:none;stroke-opacity:1"
         d="m 59.378922,107.46065 c -1e-6,-0.73306 0.384082,-0.99537 0.96014,-0.65915 0.57605,0.33623 1.344129,0.6814 2.112211,0.71719 1.536148,0.0716 3.072295,-1.09435 3.072298,-6.04443 -2e-6,-9.900162 -6.143704,-4.664323 -6.143704,-4.664323 0,0 -6.143681,5.235843 -6.143685,-4.664319 5e-6,-4.950084 1.53615,-6.116019 3.0723,-6.04443 0.76808,0.0358 1.536146,0.38096 2.112209,0.717186 0.576047,0.336226 0.959809,0.0136 0.959809,-0.659308 -6.34e-4,-3.086561 -9.98e-4,-6.17311 -0.0028,-9.261103 l 9.25767,-0.0012 c 0.733063,10e-7 0.995373,0.384082 0.659149,0.960137 -0.336224,0.576058 -0.681397,1.344133 -0.71719,2.112209 -0.07158,1.53615 1.094351,3.072301 6.044433,3.072302 9.900163,-10e-7 4.664321,-6.143696 4.664321,-6.143696 0,0 -5.235848,-6.143697 4.664318,-6.143698 4.950082,10e-7 6.116019,1.536152 6.044433,3.072302 -0.03579,0.768076 -0.380963,1.536151 -0.71719,2.112208 -0.336225,0.576056 -0.01365,0.959818 0.659307,0.959818 3.086558,-6.35e-4 6.173113,-0.0013 9.259503,-0.0025 l -5.29e-4,9.257931 c 10e-7,0.733061 -0.384083,0.995373 -0.960137,0.659149 -0.576057,-0.336225 -1.344132,-0.681399 -2.112208,-0.717191 -1.536152,-0.07158 -3.072299,1.094349 -3.072299,6.044432 0,9.900154 6.143693,4.664321 6.143693,4.664321 0,0 6.143696,-5.235847 6.143696,4.664313 0,4.95008 -1.53615,6.11602 -3.0723,6.04443 -0.76808,-0.0358 -1.53615,-0.38096 -2.11221,-0.71719 -0.576055,-0.33622 -0.959814,-0.0136 -0.959815,0.65931 l 0.0021,9.26068 -9.258545,-2.6e-4 c -0.733055,0 -0.995362,-0.38408 -0.659142,-0.96014 0.336225,-0.57606 0.681394,-1.34413 0.717182,-2.11221 0.0716,-1.53616 -1.094347,-3.07231 -6.044423,-3.07231 -9.900162,0 -4.664321,6.14371 -4.664321,6.14371 0,0 5.235836,6.14367 -4.664319,6.14368 -4.950085,0 -6.116024,-1.53614 -6.04443,-3.07229 0.0358,-0.76808 0.380959,-1.53615 0.717187,-2.11222 0.336223,-0.57604 0.0136,-0.9598 -0.65931,-0.9598 -3.086557,5.3e-4 -6.173114,0.001 -9.258771,0.004 z"
         id="path40"
         sodipodi:nodetypes="cssscssscccssscssscccssscssscccssscsssccc"
         inkscape:label="mask" /></clipPath><radialGradient
       inkscape:collect="always"
       xlink:href="#linearGradient50"
       id="radialGradient51"
       cx="19.764664"
       cy="52.129848"
       fx="19.764664"
       fy="52.129848"
       r="8.2245255"
       gradientUnits="userSpaceOnUse"
       gradientTransform="matrix(1.0114728,-0.40817927,0.40817927,1.0114728,-20.054146,9.0154892)" /><linearGradient
       inkscape:collect="always"
       xlink:href="#linearGradient52"
       id="linearGradient53"
       x1="28.221462"
       y1="63.819241"
       x2="12.567295"
       y2="46.687469"
       gradientUnits="userSpaceOnUse" /><linearGradient
       inkscape:collect="always"
       xlink:href="#linearGradient54"
       id="linearGradient55"
       x1="10.669548"
       y1="53.606152"
       x2="19.955164"
       y2="42.942097"
       gradientUnits="userSpaceOnUse"
       gradientTransform="translate(0.70158253,-0.18708867)" /><filter
       inkscape:collect="always"
       style="color-interpolation-filters:sRGB"
       id="filter57"
       x="-0.34479182"
       y="-0.32999014"
       width="1.6895836"
       height="1.6599803"><feGaussianBlur
         inkscape:collect="always"
         stdDeviation="1.3840998"
         id="feGaussianBlur57" /></filter><filter
       inkscape:collect="always"
       style="color-interpolation-filters:sRGB"
       id="filter58"
       x="-0.62635021"
       y="-0.62635021"
       width="2.2527004"
       height="2.2527004"><feGaussianBlur
         inkscape:collect="always"
         stdDeviation="7.128634"
         id="feGaussianBlur58" /></filter></defs><g
     inkscape:label="Vrstva 1"
     inkscape:groupmode="layer"
     id="layer1"
     transform="translate(9.5274404,-22.209132)"><circle
       style="opacity:1;mix-blend-mode:normal;fill:#ffe800;fill-opacity:1;stroke:none;stroke-width:2;stroke-linecap:round;stroke-linejoin:round;stroke-miterlimit:0;stroke-dasharray:none;stroke-opacity:1;paint-order:normal;filter:url(#filter58)"
       id="path58"
       cx="21.238754"
       cy="52.975327"
       r="13.657473" /><rect
       style="fill:#6f7e7e;fill-opacity:1;stroke:#304b6f;stroke-width:0.7;stroke-linecap:round;stroke-linejoin:round;stroke-miterlimit:0;stroke-dasharray:none;stroke-opacity:1;paint-order:normal"
       id="rect41-1"
       width="12.745644"
       height="1.3173492"
       x="14.901779"
       y="76.16198"
       rx="0.58465207"
       ry="0.58465207" /><path
       style="fill:#000000;fill-opacity:1;fill-rule:evenodd;stroke:#304b6f;stroke-width:0.4;stroke-linecap:butt;stroke-linejoin:round;stroke-dasharray:none;stroke-opacity:1"
       d="m 26.360429,78.773799 c 0,0 0.03969,1.063421 0.433143,2.000912 -2.099069,0.876432 -4.647939,2.199348 -5.494896,3.852994 -0.846957,-1.653646 -3.395827,-2.976562 -5.494896,-3.852994 0.39345,-0.937491 0.433143,-2.000912 0.433143,-2.000912"
       id="path41"
       sodipodi:nodetypes="ccccc" /><rect
       style="fill:#6f7e7e;fill-opacity:1;stroke:#304b6f;stroke-width:0.7;stroke-linecap:round;stroke-linejoin:round;stroke-miterlimit:0;stroke-dasharray:none;stroke-opacity:1;paint-order:normal"
       id="rect41-1-4"
       width="12.745644"
       height="1.3173492"
       x="14.901779"
       y="78.080208"
       rx="0.58465207"
       ry="0.58465207" /><path
       style="fill:none;fill-rule:evenodd;stroke:#304b6f;stroke-width:0.4;stroke-linecap:round;stroke-linejoin:miter;stroke-dasharray:none;stroke-opacity:1"
       d="m 23.898993,82.205114 c 0,0 -1.026902,0.388607 -2.595109,0.388607 -1.568208,0 -2.612761,-0.388607 -2.612761,-0.388607"
       id="path42"
       sodipodi:nodetypes="czc" /><path
       style="fill:none;fill-rule:evenodd;stroke:#304b6f;stroke-width:0.5;stroke-linecap:butt;stroke-linejoin:miter;stroke-dasharray:none;stroke-opacity:1"
       d="m 19.713756,74.069573 c 0,-12.972465 -1.96443,-19.457221 -1.96443,-19.457221"
       id="path52"
       sodipodi:nodetypes="cc" /><path
       style="fill:none;fill-rule:evenodd;stroke:#304b6f;stroke-width:0.5;stroke-linecap:butt;stroke-linejoin:miter;stroke-dasharray:none;stroke-opacity:1"
       d="m 23.145893,74.069573 c 0,-12.972465 1.96443,-19.457221 1.96443,-19.457221"
       id="path52-7"
       sodipodi:nodetypes="cc" /><path
       id="path43"
       style="opacity:1;fill:url(#radialGradient51);fill-opacity:1;stroke:#304b6f;stroke-width:0.449999;stroke-linecap:round;stroke-linejoin:round;stroke-miterlimit:0;stroke-dasharray:none"
       d="m 17.568055,48.154328 -0.325788,-2.001562 c 0,0 0.224407,-0.225964 0.72509,-0.428014 0.500682,-0.20205 0.816251,-0.20211 0.816251,-0.20211 l 1.169687,1.656572 c 0,0 0.516059,0.681163 1.289002,0.681164 0.772944,-10e-7 1.293131,-0.668638 1.293131,-0.668638 l 1.190253,-1.645071 c 0,0 0.318461,-0.0011 0.815367,0.210064 0.496907,0.211165 0.72009,0.434265 0.72009,0.434265 l -0.344279,1.998465 c 0,0 -0.116747,0.846563 0.429806,1.393119 0.546554,0.546552 1.38718,0.441582 1.38718,0.441582 l 2.004877,-0.321605 c 0,0 0.225964,0.224408 0.428014,0.72509 0.20205,0.500681 0.202108,0.816252 0.202108,0.816252 l -1.65657,1.169687 c 0,0 -0.681164,0.516057 -0.681164,1.289002 0,0.772943 0.668638,1.29313 0.668638,1.29313 l 1.64507,1.190253 c 0,0 0.0011,0.31846 -0.210063,0.815367 -0.211165,0.496907 -0.434265,0.72009 -0.434265,0.72009 l -1.998466,-0.344279 c 0,0 -0.846564,-0.116747 -1.393118,0.429807 -0.546553,0.546554 -0.441583,1.387179 -0.441583,1.387179 l 0.321605,2.004877 c 0,0 -0.224407,0.225964 -0.72509,0.428013 -0.500682,0.202051 -0.816251,0.20211 -0.816251,0.20211 L 22.4779,60.172567 c 0,0 -0.516059,-0.681164 -1.289002,-0.681166 -0.772944,2e-6 -1.293131,0.668639 -1.293131,0.668639 l -1.190253,1.64507 c 0,0 -0.31846,0.0011 -0.815367,-0.210064 -0.496907,-0.211165 -0.72009,-0.434265 -0.72009,-0.434265 l 0.344279,-1.998465 c 0,0 0.116747,-0.846563 -0.429806,-1.393118 -0.546554,-0.546553 -1.38718,-0.441583 -1.38718,-0.441583 l -2.004876,0.321605 c 0,0 -0.225965,-0.224408 -0.428015,-0.72509 -0.202049,-0.500681 -0.202108,-0.816252 -0.202108,-0.816252 l 1.65657,-1.169686 c 0,0 0.681164,-0.516058 0.681164,-1.289002 0,-0.772944 -0.668638,-1.29313 -0.668638,-1.29313 l -1.64507,-1.190254 c 0,0 -0.0011,-0.31846 0.210064,-0.815367 0.211164,-0.496906 0.434264,-0.72009 0.434264,-0.72009 l 1.998466,0.344279 c 0,0 0.846564,0.116748 1.393118,-0.429806 0.546554,-0.546554 0.4374,-1.383866 0.4374,-1.383866"
       sodipodi:nodetypes="cczcczccsccsccsccsccsccsccsccsccsccsccsccsccsccsc" /><circle
       style="opacity:1;fill:#ffffff;fill-opacity:1;stroke:#304b6f;stroke-width:0.400001;stroke-linecap:round;stroke-linejoin:round;stroke-miterlimit:0;stroke-dasharray:none;stroke-opacity:1;paint-order:normal"
       id="path51"
       cx="21.266363"
       cy="53.712387"
       r="3.9664714" /><circle
       style="fill:#ffe000;fill-opacity:1;stroke:#304b6f;stroke-width:0.400001;stroke-linecap:round;stroke-linejoin:round;stroke-miterlimit:0;stroke-dasharray:none;stroke-opacity:1;paint-order:normal"
       id="path51-1"
       cx="21.266365"
       cy="53.712391"
       r="2.8452032" /><circle
       style="fill:#ffffff;fill-opacity:1;stroke:#304b6f;stroke-width:0.400001;stroke-linecap:round;stroke-linejoin:round;stroke-miterlimit:0;stroke-dasharray:none;stroke-opacity:1;paint-order:normal"
       id="path51-1-8"
       cx="21.266365"
       cy="53.712391"
       r="2.0150359" /><path
       style="fill:url(#linearGradient53);fill-rule:evenodd;stroke:#304b6f;stroke-width:0.75;stroke-linecap:butt;stroke-linejoin:miter;stroke-dasharray:none;stroke-opacity:1"
       d="m 15.99568,74.920804 c 0,-10.711301 -7.2429689,-13.033007 -7.2429689,-21.431249 0,-7.208995 5.1690859,-13.096875 12.5346349,-13.096875 7.36555,0 12.534636,5.88788 12.534636,13.096875 0,8.398242 -7.242969,10.719948 -7.242969,21.431249"
       id="path41-7"
       sodipodi:nodetypes="cszsc" /><path
       style="mix-blend-mode:normal;fill:none;fill-opacity:1;fill-rule:evenodd;stroke:url(#linearGradient55);stroke-width:2;stroke-linecap:round;stroke-linejoin:miter;stroke-dasharray:none;stroke-opacity:1;filter:url(#filter57)"
       d="m 11.278409,55.313669 c 0,-7.208995 5.169086,-13.096875 12.534635,-13.096875"
       id="path41-7-7"
       sodipodi:nodetypes="cc" /><rect
       style="opacity:1;fill:#6f7e7e;fill-opacity:1;stroke:#304b6f;stroke-width:0.7;stroke-linecap:round;stroke-linejoin:round;stroke-miterlimit:0;stroke-dasharray:none;stroke-opacity:1;paint-order:normal"
       id="rect41"
       width="12.745644"
       height="1.3173492"
       x="14.901779"
       y="74.194138"
       rx="0.58465207"
       ry="0.58465207" /></g></svg>
